<?xml version="1.0" encoding="utf-8"?>
<!DOCTYPE svg PUBLIC "-//W3C//DTD SVG 1.1//EN" "http://www.w3.org/Graphics/SVG/1.1/DTD/svg11.dtd">
<svg version="1.1" id="clalit_logo" xmlns="http://www.w3.org/2000/svg" xmlns:xlink="http://www.w3.org/1999/xlink" x="0px" y="0px" width="100%" height="100%" viewBox="0 0 375.233 89.666">
	<polyline fill="#FFFFFF" points="0,0 375.233,0 179.002,89.666 14.669,74.333 0,0" />
	<g>
		<defs>
			<rect id="SVGID_1_" x="54.002" y="19.643" width="181.529" height="44.357" />
		</defs>
		<clipPath id="SVGID_2_">
			<use xlink:href="#SVGID_1_"  overflow="visible" />
		</clipPath>
		<path clip-path="url(#SVGID_2_)" fill="#00A651" d="M160.56,32.095c0,0,0.236,1.367-0.483,4.875l-1.393,6.77h4.746l1.395-6.77c0.655-3.183,0.482-4.875,0.482-4.875H160.56z" />
		<path clip-path="url(#SVGID_2_)" fill="#00A651" d="M194.276,32.095l-0.995,4.833h3.883c1.657,0,2.643,0.847,1.73,5.277c-0.812,3.949-2.1,5.278-3.855,5.278h-3.932l-0.996,4.836h6.01c3.386,0,6.161-3.141,7.595-10.114c1.561-7.574-0.611-10.11-3.43-10.11H194.276z" />
		<path clip-path="url(#SVGID_2_)" fill="#00A651" d="M167.595,28.357c-0.024,0.389,0.003,1.006-0.089,1.461c-0.156,0.926-0.389,2.298-0.389,2.298c-0.39,2.891,0.25,4.834,3.253,4.834h1.44c2.578-0.2,1.437,1.592,0.582,3.788l-4.317,11.605h4.946l4.813-13.056c1.796-4.887,0.041-7.09-1.76-7.09c-1.406,0-1.967-0.04-3.119-0.04c-1.222,0-1.035-1.12-0.839-2.194c0.111-0.618,0.078-1.252,0.117-1.607L167.595,28.357z" />
		<path clip-path="url(#SVGID_2_)" fill="#00A651" d="M142.695,45.464c-0.895,4.027-2.639,3.06-3.83,2.854c-0.341,1.511-0.835,3.796-0.835,3.796s2.132,0.411,3.876,0.37c2.548-0.057,4.297-1.222,5.563-7.335l1.693-8.221h1.706c2.102,0,2.083,0.926,1.51,3.707l-2.404,11.685h4.75l2.59-12.708c1.491-6.865-0.693-7.502-3.903-7.502l-8.003-0.015L142.695,45.464z" />
		<path clip-path="url(#SVGID_2_)" fill="#00A651" d="M180.573,28.357c-0.021,0.389,0.002,1.006-0.089,1.461c-0.157,0.926-0.386,2.298-0.386,2.298c-0.39,2.891,0.249,4.834,3.253,4.834h1.44c2.575-0.2,1.436,1.592,0.58,3.788l-4.317,11.605H186l4.813-13.056c1.799-4.887,0.044-7.09-1.759-7.09c-1.409,0-1.968-0.04-3.119-0.04c-1.222,0-1.036-1.12-0.839-2.194c0.112-0.618,0.077-1.252,0.117-1.607L180.573,28.357z" />
		<path clip-path="url(#SVGID_2_)" fill="#00AEEF" d="M221.243,28.845l-6.171,5.179c-0.266,0.233-0.599,0.346-0.947,0.346l-4.119,0.002c-0.298,0-0.622,0.253-0.683,0.552l-0.808,3.856c-0.06,0.3,0.151,0.532,0.449,0.532h7.353c0.795,0,1.201-0.373,1.285-0.446l4.44-3.711c0.131-0.121,0.295-0.177,0.488-0.177c0.212,0,0.404,0.089,0.54,0.235l2.932,3.501c0.503,0.598,1.149,0.609,1.417,0.609H234c0.299,0,0.59-0.243,0.651-0.543l0.822-3.874c0.059-0.295-0.134-0.537-0.431-0.537l-5.546-0.007c-0.231,0-0.427-0.1-0.54-0.252l-4.397-5.245c-0.364-0.458-0.899-0.742-1.574-0.742C222.202,28.123,221.718,28.438,221.243,28.845" />
		<path clip-path="url(#SVGID_2_)" fill="#00A651" d="M207.981,43.906c-0.294,0-0.591,0.239-0.65,0.538l-0.819,3.873c-0.062,0.3,0.131,0.54,0.426,0.54l5.55,0.006c0.229,0,0.425,0.098,0.539,0.254l4.399,5.243c0.363,0.457,0.896,0.741,1.568,0.741c0.783,0,1.27-0.314,1.749-0.719l6.166-5.177c0.269-0.237,0.602-0.352,0.948-0.352h4.119c0.299,0,0.626-0.258,0.686-0.551l0.807-3.859c0.06-0.299-0.153-0.53-0.449-0.53h-7.35c-0.8,0-1.205,0.373-1.287,0.443l-4.444,3.71c-0.133,0.125-0.293,0.181-0.484,0.181c-0.214,0-0.405-0.088-0.537-0.235l-2.938-3.502c-0.504-0.597-1.146-0.605-1.417-0.605L207.981,43.906z" />
		<path clip-path="url(#SVGID_2_)" fill="#007F49" d="M58.43,42.02c-0.374,0.042-0.489,0.174-0.56,0.504l-0.231,1.1c-0.076,0.354,0.059,0.417,0.388,0.396c1.034-0.111,1.873-0.111,2.606-0.111c0.442,0,0.894,0.015,1.281,0.038c-0.335-0.725-0.714-1.435-1.131-2.113C60.038,41.866,59.283,41.928,58.43,42.02 M58.244,46.436c-0.237,0-0.359,0.065-0.507,0.266c-0.36,0.483-0.796,1.317-0.947,2.021l-0.664,3.12c-0.085,0.396-0.021,0.507,0.323,0.507h1.461c0.368,0,0.476-0.11,0.559-0.507l1.062-4.989c0.065-0.309,0.003-0.418-0.319-0.418H58.244z M62.666,49.119l-0.582,2.725c-0.084,0.396,0,0.507,0.344,0.507h1.008c0.013-0.1,0.032-0.192,0.046-0.294c0.184-1.506,0.025-3.18-0.408-4.871L62.666,49.119z" />
		<path clip-path="url(#SVGID_2_)" fill="#00A651" d="M60.782,41.833c0.418,0.679,0.797,1.387,1.131,2.111c0.287,0.016,0.542,0.034,0.72,0.054c0.816,0.108,1.002,0.549,0.885,1.1l-0.444,2.088c0.434,1.691,0.592,3.366,0.408,4.872c-0.014,0.101-0.033,0.194-0.049,0.293h0.458c0.342,0,0.453-0.111,0.537-0.506l0.579-2.726l0.86-4.045c0.499-2.352-0.594-3.277-3.561-3.277C61.788,41.797,61.283,41.81,60.782,41.833 M61.914,43.946v-0.002h-0.017L61.914,43.946z M68.966,50.218H66.88c-0.344,0-0.45,0.086-0.53,0.463l-0.26,1.229c-0.074,0.351-0.007,0.439,0.339,0.439h3.869c0.39,0,0.516-0.052,0.612-0.379c-0.252-1.412-0.736-2.852-1.412-4.254L68.966,50.218z" />
		<path clip-path="url(#SVGID_2_)" fill="#B2D235" d="M68.773,42.018c-0.377,0.152-0.381,0.177-0.456,0.529l-0.219,1.031c-0.08,0.374-0.01,0.439,0.328,0.374c0.157-0.022,0.446-0.066,0.725-0.066c0.923,0,1.093,0.308,0.911,1.166l-0.2,0.944l-0.364,1.72c0.675,1.403,1.16,2.843,1.412,4.255c0.014-0.049,0.028-0.106,0.042-0.173l1.15-5.406c-0.349-1.966-1.44-3.405-3.036-4.442C68.939,41.972,68.833,41.994,68.773,42.018 M70.847,52.131c0.023-0.043,0.043-0.093,0.061-0.155C70.89,52.039,70.87,52.088,70.847,52.131" />
		<path clip-path="url(#SVGID_2_)" fill="#00AEEF" d="M84.592,41.864c-0.322,0-0.442,0.155-0.582,0.508l-0.555,1.309c0.56,0.497,1.15,0.968,1.768,1.404l1.087-2.605c0.13-0.309,0.26-0.616-0.127-0.616H84.592z" />
		<path clip-path="url(#SVGID_2_)" fill="#F15A29" d="M79.88,41.865c-0.365,0-0.425,0.174-0.573,0.572l-1.292,3.451c-0.013,0.036-0.031,0.07-0.046,0.105c0.294,0.574,0.542,1.175,0.743,1.795c0.615-0.363,1.222-1.041,1.572-1.947l1.302-3.295c0.142-0.376,0.337-0.682-0.137-0.682H79.88z M74.956,41.865c-0.136,0-0.226,0.046-0.283,0.126c0.823,0.641,1.559,1.392,2.192,2.233l0.072-1.766c0.021-0.396-0.045-0.594-0.325-0.594H74.956z M81.211,48.963c-0.429,1.022-1.11,1.447-1.955,1.526c0.027,0.335,0.043,0.674,0.043,1.014c0,0.319-0.016,0.632-0.04,0.943c2.053-0.205,3.499-1.44,4.418-3.657l1.546-3.705c-0.616-0.434-1.209-0.907-1.769-1.402L81.211,48.963z" />
		<path clip-path="url(#SVGID_2_)" fill="#CB582C" d="M74.956,41.865c-0.136,0-0.226,0.046-0.282,0.127c0.822,0.64,1.558,1.391,2.191,2.232l0.07-1.672c-0.485-0.265-0.992-0.492-1.515-0.688H74.956z M74.67,41.992h0.003v-0.001L74.67,41.992z M74.632,42.065c0.008-0.027,0.022-0.051,0.038-0.073C74.654,42.013,74.64,42.038,74.632,42.065 M74.622,42.085c0.002-0.007,0.005-0.015,0.011-0.021C74.626,42.071,74.624,42.079,74.622,42.085 M78.015,45.888c-0.013,0.036-0.031,0.07-0.046,0.106c0.294,0.573,0.542,1.175,0.743,1.794c0.615-0.363,1.222-1.042,1.571-1.947l0.158-0.398c-0.494-0.6-1.046-1.147-1.645-1.638L78.015,45.888z M81.211,48.963c-0.429,1.022-1.109,1.447-1.955,1.526c0.027,0.335,0.043,0.674,0.043,1.014c0,0.319-0.014,0.632-0.038,0.943c-0.187,0.018-0.379,0.031-0.573,0.031c1.795-0.014,3.161-0.743,4.157-2.153c-0.225-0.982-0.572-1.922-1.027-2.794L81.211,48.963z" />
		<path clip-path="url(#SVGID_2_)" fill="#FBB040" d="M69.065,41.95c1.597,1.036,2.688,2.477,3.037,4.442l0.113-0.526l0.18-0.858c0.492-2.31-0.298-3.144-2.256-3.144C69.845,41.864,69.385,41.901,69.065,41.95 M69.004,41.961c0.022-0.004,0.041-0.007,0.061-0.011C69.045,41.954,69.026,41.957,69.004,41.961 M68.984,41.965c0.006-0.004,0.013-0.004,0.02-0.004C68.998,41.961,68.991,41.961,68.984,41.965 M74.563,42.501l-0.193,6.573c-0.073,2.46,0.933,3.407,3.019,3.407h1.245c0.217,0,0.423-0.014,0.625-0.035c0.026-0.313,0.04-0.624,0.04-0.943c0-0.341-0.016-0.679-0.043-1.015c-0.101,0.008-0.203,0.016-0.307,0.016h-1.077c-0.753,0-1.199-0.223-1.178-1.034l0.016-0.681l1.825-0.903c0.058-0.029,0.118-0.064,0.175-0.098c-0.199-0.619-0.448-1.221-0.741-1.794c-0.31,0.764-0.8,1.176-1.146,1.346l-0.094,0.043l0.134-3.16c-0.632-0.84-1.369-1.591-2.191-2.232C74.585,42.107,74.568,42.292,74.563,42.501" />
		<path clip-path="url(#SVGID_2_)" fill="#F15A29" d="M88.785,52.35h4.934l1.534-7.223c-1.077-1.534-2.473-2.991-4.027-4.255L88.785,52.35z" />
		<path clip-path="url(#SVGID_2_)" fill="#FBB040" d="M99.067,37.601c0.048-0.117,0.097-0.231,0.147-0.345C99.164,37.37,99.115,37.484,99.067,37.601" />
		<path clip-path="url(#SVGID_2_)" fill="#FBB040" d="M100.069,35.576c0.049-0.083,0.099-0.165,0.149-0.246C100.168,35.411,100.118,35.493,100.069,35.576" />
		<path clip-path="url(#SVGID_2_)" fill="#FBB040" d="M99.339,36.972c0.04-0.087,0.081-0.172,0.123-0.257C99.42,36.8,99.379,36.885,99.339,36.972" />
		<path clip-path="url(#SVGID_2_)" fill="#FBB040" d="M99.574,36.484c0.043-0.087,0.088-0.172,0.133-0.257C99.662,36.313,99.617,36.397,99.574,36.484" />
		<path clip-path="url(#SVGID_2_)" fill="#FBB040" d="M100.329,35.155c0.052-0.081,0.104-0.161,0.157-0.239C100.433,34.994,100.381,35.074,100.329,35.155" />
		<path clip-path="url(#SVGID_2_)" fill="#FBB040" d="M100.867,34.382c0.06-0.079,0.119-0.159,0.18-0.235C100.986,34.223,100.927,34.303,100.867,34.382" />
		<path clip-path="url(#SVGID_2_)" fill="#FBB040" d="M105.5,35.165c0.035-0.035,0.073-0.067,0.109-0.102C105.573,35.098,105.535,35.13,105.5,35.165" />
		<path clip-path="url(#SVGID_2_)" fill="#FBB040" d="M98.828,38.212c0.026-0.07,0.051-0.142,0.078-0.211C98.879,38.07,98.854,38.142,98.828,38.212" />
		<path clip-path="url(#SVGID_2_)" fill="#FBB040" d="M101.916,33.175c0.071-0.07,0.142-0.137,0.214-0.204C102.058,33.038,101.987,33.105,101.916,33.175" />
		<path clip-path="url(#SVGID_2_)" fill="#FBB040" d="M105.13,35.577c0.03-0.038,0.064-0.072,0.094-0.109C105.193,35.505,105.16,35.539,105.13,35.577" />
		<path clip-path="url(#SVGID_2_)" fill="#FBB040" d="M105.906,34.8c0.04-0.032,0.084-0.061,0.126-0.093C105.99,34.739,105.947,34.768,105.906,34.8" />
		<path clip-path="url(#SVGID_2_)" fill="#FBB040" d="M98.478,39.235c0,0,0.001,0,0.002,0c0.008-0.026,0.016-0.053,0.024-0.079C98.495,39.183,98.485,39.208,98.478,39.235" />
		<path clip-path="url(#SVGID_2_)" fill="#FBB040" d="M98.645,38.725c0.002-0.007,0.005-0.014,0.008-0.021c0.016-0.046,0.03-0.093,0.046-0.139c-0.025,0.074-0.05,0.15-0.076,0.226C98.631,38.769,98.638,38.747,98.645,38.725" />
		<path clip-path="url(#SVGID_2_)" fill="#FBB040" d="M105.871,30.786c0.067-0.021,0.133-0.04,0.2-0.059C106.003,30.746,105.938,30.765,105.871,30.786" />
		<path clip-path="url(#SVGID_2_)" fill="#FBB040" d="M102.229,32.877c0.069-0.062,0.138-0.123,0.207-0.182C102.367,32.754,102.298,32.815,102.229,32.877" />
		<path clip-path="url(#SVGID_2_)" fill="#FBB040" d="M105.5,30.909c0.069-0.025,0.139-0.048,0.209-0.071C105.638,30.861,105.568,30.884,105.5,30.909" />
		<path clip-path="url(#SVGID_2_)" fill="#FBB040" d="M106.35,34.488c0.046-0.028,0.096-0.053,0.143-0.079C106.446,34.436,106.396,34.46,106.35,34.488" />
		<path clip-path="url(#SVGID_2_)" fill="#FBB040" d="M99.921,35.833c0.013-0.022,0.025-0.045,0.037-0.066c-0.047,0.083-0.095,0.167-0.141,0.253c0.032-0.059,0.064-0.117,0.097-0.174C99.916,35.841,99.919,35.837,99.921,35.833" />
		<path clip-path="url(#SVGID_2_)" fill="#FBB040" d="M106.249,30.676c0.063-0.017,0.126-0.033,0.189-0.049C106.375,30.644,106.312,30.659,106.249,30.676" />
		<path clip-path="url(#SVGID_2_)" fill="#FBB040" d="M111.306,30.512c0.027,0.006,0.055,0.012,0.082,0.018C111.361,30.524,111.333,30.518,111.306,30.512" />
		<path clip-path="url(#SVGID_2_)" fill="#FBB040" d="M110.573,30.391c0.042,0.005,0.085,0.011,0.127,0.016C110.658,30.402,110.615,30.396,110.573,30.391" />
		<path clip-path="url(#SVGID_2_)" fill="#FBB040" d="M105.132,31.047c0.073-0.03,0.148-0.057,0.222-0.085C105.281,30.99,105.206,31.018,105.132,31.047" />
		<path clip-path="url(#SVGID_2_)" fill="#FBB040" d="M103.201,32.097c0.071-0.05,0.142-0.099,0.214-0.147C103.343,31.999,103.272,32.047,103.201,32.097" />
		<path clip-path="url(#SVGID_2_)" fill="#FBB040" d="M102.872,32.339c0.069-0.053,0.139-0.105,0.209-0.156C103.011,32.234,102.941,32.286,102.872,32.339" />
		<path clip-path="url(#SVGID_2_)" fill="#FBB040" d="M102.547,32.6c0.069-0.057,0.138-0.113,0.207-0.168C102.686,32.486,102.617,32.542,102.547,32.6" />
		<path clip-path="url(#SVGID_2_)" fill="#FBB040" d="M103.862,31.672c0.079-0.046,0.158-0.093,0.237-0.136C104.021,31.579,103.941,31.626,103.862,31.672" />
		<path clip-path="url(#SVGID_2_)" fill="#FBB040" d="M103.532,31.875c0.074-0.048,0.148-0.095,0.222-0.14C103.68,31.78,103.606,31.827,103.532,31.875" />
		<path clip-path="url(#SVGID_2_)" fill="#FBB040" d="M104.164,31.502c0.282-0.152,0.569-0.288,0.86-0.409C104.732,31.214,104.446,31.35,104.164,31.502" />
		<path clip-path="url(#SVGID_2_)" fill="#FBB040" d="M104.795,36.029c0.027-0.039,0.056-0.076,0.083-0.114C104.851,35.953,104.822,35.99,104.795,36.029" />
		<path clip-path="url(#SVGID_2_)" fill="#FBB040" d="M103.835,37.896c-0.018,0.044-0.037,0.087-0.053,0.131c-0.002,0.005-0.003,0.009-0.005,0.013C103.795,37.992,103.816,37.944,103.835,37.896" />
		<path clip-path="url(#SVGID_2_)" fill="#FBB040" d="M103.673,38.325c-0.018,0.05-0.037,0.101-0.054,0.151c-0.002,0.004-0.003,0.009-0.005,0.015C103.633,38.435,103.653,38.379,103.673,38.325" />
		<path clip-path="url(#SVGID_2_)" fill="#FBB040" d="M104.288,36.892c-0.018,0.035-0.038,0.069-0.056,0.104l-0.009,0.019C104.243,36.973,104.267,36.934,104.288,36.892" />
		<polyline clip-path="url(#SVGID_2_)" fill="#FBB040" points="110.428,34.657 110.433,34.663 110.428,34.657 	" />
		<path clip-path="url(#SVGID_2_)" fill="#FBB040" d="M103.544,38.697c-0.001,0.003-0.002,0.006-0.003,0.01c-0.018,0.054-0.034,0.107-0.051,0.161c-0.021,0.065-0.042,0.129-0.062,0.194C103.465,38.941,103.504,38.819,103.544,38.697" />
		<path clip-path="url(#SVGID_2_)" fill="#FBB040" d="M104.045,37.397c-0.009,0.02-0.019,0.04-0.027,0.059c-0.003,0.005-0.005,0.011-0.007,0.016C104.022,37.446,104.034,37.422,104.045,37.397" />
		<path clip-path="url(#SVGID_2_)" fill="#FBB040" d="M106.882,34.215c-0.016,0.007-0.031,0.017-0.047,0.024c0.465-0.201,0.982-0.32,1.562-0.32c0.699,0,1.24,0.161,1.66,0.435c-0.123-0.708-0.186-1.433-0.186-2.174c0-0.625,0.045-1.241,0.133-1.844c-0.275-0.019-0.554-0.032-0.839-0.032c-0.893,0-1.782,0.097-2.649,0.305c0.248,0.958,0.382,1.962,0.382,2.993C106.898,33.807,106.892,34.01,106.882,34.215" />
		<path clip-path="url(#SVGID_2_)" fill="#FBB040" d="M101.488,33.628c0.122-0.136,0.245-0.268,0.371-0.394c-0.251,0.252-0.494,0.523-0.729,0.813c0.116-0.143,0.234-0.281,0.354-0.414C101.485,33.631,101.487,33.63,101.488,33.628" />
		<path clip-path="url(#SVGID_2_)" fill="#FBB040" d="M100.671,34.65c0.03-0.043,0.061-0.087,0.092-0.129c-0.057,0.076-0.112,0.155-0.167,0.234c0.023-0.033,0.046-0.065,0.069-0.097C100.667,34.655,100.669,34.652,100.671,34.65" />
		<path clip-path="url(#SVGID_2_)" fill="#FBB040" d="M103.352,39.321c-0.005,0.016-0.009,0.031-0.014,0.046c-0.006,0.021-0.012,0.042-0.018,0.064c-0.003,0.012-0.006,0.024-0.01,0.037C103.324,39.419,103.338,39.37,103.352,39.321" />
		<path clip-path="url(#SVGID_2_)" fill="#FBB040" d="M104.566,36.393c-0.011,0.019-0.024,0.037-0.035,0.056c-0.005,0.008-0.009,0.015-0.013,0.022C104.533,36.445,104.55,36.419,104.566,36.393" />
		<polyline clip-path="url(#SVGID_2_)" fill="#FBB040" points="110.961,35.455 110.965,35.465 110.961,35.455 	" />
		<polyline clip-path="url(#SVGID_2_)" fill="#FBB040" points="110.728,35.027 110.734,35.037 110.728,35.027 	" />
		<path clip-path="url(#SVGID_2_)" fill="#FBB040" d="M111.246,36.432c0.001,0.006,0.002,0.012,0.003,0.018C111.248,36.444,111.247,36.438,111.246,36.432" />
		<path clip-path="url(#SVGID_2_)" fill="#F15A29" d="M111.328,38.117c0.005-0.11,0.005-0.219,0.007-0.329C111.333,37.898,111.333,38.007,111.328,38.117" />
		<path clip-path="url(#SVGID_2_)" fill="#F15A29" d="M116.229,37.14c0.005,0.207,0.004,0.42-0.002,0.639C116.233,37.56,116.234,37.347,116.229,37.14" />
		<path clip-path="url(#SVGID_2_)" fill="#F15A29" d="M115.997,35.108c0.038,0.17,0.072,0.345,0.101,0.525C116.069,35.453,116.035,35.278,115.997,35.108" />
		<path clip-path="url(#SVGID_2_)" fill="#F15A29" d="M116.113,35.73c0.063,0.416,0.102,0.859,0.115,1.332C116.215,36.589,116.176,36.146,116.113,35.73" />
		<path clip-path="url(#SVGID_2_)" fill="#F15A29" d="M116.217,38.137c0.003-0.073,0.005-0.145,0.008-0.217c-0.003,0.07-0.009,0.145-0.013,0.217H116.217z" />
		<path clip-path="url(#SVGID_2_)" fill="#F15A29" d="M111.326,37.238c0.004,0.088,0.01,0.176,0.011,0.265C111.336,37.415,111.33,37.326,111.326,37.238" />
		<path clip-path="url(#SVGID_2_)" fill="#F15A29" d="M110.057,34.354L110.057,34.354c0.137,0.089,0.26,0.191,0.371,0.303c0.002,0.002,0.004,0.004,0.006,0.006c0.109,0.111,0.207,0.233,0.294,0.364c0.002,0.003,0.004,0.007,0.006,0.01c0.086,0.131,0.162,0.27,0.227,0.418c0.002,0.003,0.003,0.007,0.004,0.01c0.131,0.296,0.222,0.622,0.281,0.967c0.001,0.006,0.002,0.012,0.003,0.018c0.026,0.15,0.043,0.304,0.057,0.46c-0.001-0.007-0.001-0.014-0.001-0.02c-0.004-0.046-0.01-0.091-0.015-0.135c1.349-1.319,2.386-2.956,2.991-4.793c0.792,0.736,1.385,1.739,1.7,3.07c-0.622-2.647-2.339-4.006-4.592-4.501c-0.028-0.007-0.055-0.013-0.082-0.019c-0.199-0.041-0.401-0.076-0.607-0.104c-0.042-0.006-0.084-0.012-0.127-0.017c-0.187-0.023-0.375-0.044-0.569-0.057v0.002c-0.088,0.603-0.132,1.22-0.132,1.844C109.872,32.921,109.935,33.646,110.057,34.354" />
		<polyline clip-path="url(#SVGID_2_)" fill="#ED1C24" points="131.129,30.614 131.128,30.614 131.134,30.616 131.129,30.614 	" />
		<path clip-path="url(#SVGID_2_)" fill="#ED1C24" d="M122.696,36.008c1.41-2.742,3.83-4.808,6.858-5.657c0.003,0,0.005,0.001,0.008,0.001c-0.003,0-0.005-0.001-0.007-0.001c0.002,0,0.004,0.001,0.007,0.001c0.528,0.044,1.034,0.126,1.515,0.249l0.004,0.001c-0.777-0.202-1.622-0.297-2.515-0.297c-3.465,0-6.868,1.422-9.165,5.391c0.12-0.207,0.242-0.408,0.368-0.602C120.822,35.268,121.799,35.58,122.696,36.008" />
		<path clip-path="url(#SVGID_2_)" fill="#ED1C24" d="M132.386,31.08c-0.051-0.025-0.102-0.05-0.153-0.074c0.007,0.004,0.014,0.007,0.02,0.01C132.297,31.037,132.341,31.058,132.386,31.08" />
		<path clip-path="url(#SVGID_2_)" fill="#ED1C24" d="M118.652,37.173c-0.137,0.308-0.268,0.63-0.393,0.963h0.002C118.387,37.805,118.516,37.481,118.652,37.173" />
		<path clip-path="url(#SVGID_2_)" fill="#ED1C24" d="M131.458,30.709c-0.099-0.032-0.2-0.061-0.302-0.088c0.041,0.011,0.081,0.024,0.122,0.036C131.338,30.675,131.399,30.69,131.458,30.709" />
		<path clip-path="url(#SVGID_2_)" fill="#ED1C24" d="M131.56,30.744c0.145,0.048,0.286,0.101,0.426,0.157C131.846,30.843,131.704,30.792,131.56,30.744" />
		<path clip-path="url(#SVGID_2_)" fill="#ED1C24" d="M119.063,36.315c0.09-0.174,0.182-0.345,0.276-0.51C119.246,35.97,119.154,36.142,119.063,36.315" />
		<path clip-path="url(#SVGID_2_)" fill="#ED1C24" d="M132.687,31.238c0.028,0.016,0.056,0.03,0.083,0.046C132.743,31.269,132.715,31.254,132.687,31.238" />
		<path clip-path="url(#SVGID_2_)" fill="#ED1C24" d="M118.729,37.004c0.079-0.173,0.16-0.343,0.243-0.508C118.89,36.661,118.809,36.831,118.729,37.004" />
		<path clip-path="url(#SVGID_2_)" fill="#ED1C24" d="M130.229,41.45c-0.079,0.37-0.173,0.806-0.286,1.282c0.002-0.003,0.005-0.005,0.008-0.007c0.001-0.003,0.002-0.006,0.002-0.008v0.005c0.001,0,0.001,0,0.001,0c0.113-0.468,0.205-0.9,0.283-1.267c0.39-1.832,1.205-5.666-0.674-7.033c-0.006-0.004-0.011-0.007-0.017-0.01c-0.066-0.048-0.134-0.093-0.206-0.134C131.494,35.504,130.632,39.55,130.229,41.45" />
		<polyline clip-path="url(#SVGID_2_)" fill="#ED1C24" points="133.169,31.543 133.178,31.55 133.169,31.543" />
		<polyline clip-path="url(#SVGID_2_)" fill="#ED1C24" points="133.566,31.855 133.567,31.856 133.566,31.855" />
		<path clip-path="url(#SVGID_2_)" fill="#B02A30" d="M119.26,51.542c-0.004-0.003-0.008-0.005-0.012-0.008c-0.142-0.104-0.278-0.215-0.409-0.334c-0.016-0.014-0.032-0.028-0.048-0.043c-0.262-0.241-0.502-0.512-0.718-0.814c-0.01-0.015-0.02-0.028-0.031-0.044c-0.105-0.151-0.205-0.311-0.298-0.479c-0.008-0.015-0.016-0.029-0.023-0.043c-0.187-0.342-0.347-0.718-0.478-1.129c-0.008-0.025-0.015-0.05-0.023-0.075c-0.064-0.208-0.121-0.422-0.17-0.646c0,0,0,0-0.001,0c-0.048-0.224-0.087-0.456-0.12-0.697c-0.003-0.018-0.006-0.032-0.009-0.049c0.001,0,0.001-0.001,0.001-0.001c-0.062-0.475-0.095-0.985-0.096-1.532h-0.012c0.006,3.235,1.138,5.17,2.902,6.19c-0.006-0.004-0.011-0.008-0.018-0.012C119.547,51.738,119.401,51.644,119.26,51.542" />
		<path clip-path="url(#SVGID_2_)" fill="#B02A30" d="M120.199,52.088c-0.024-0.011-0.048-0.021-0.072-0.031C120.151,52.068,120.175,52.078,120.199,52.088" />
		<path clip-path="url(#SVGID_2_)" fill="#B02A30" d="M124.939,49.15c0.026-0.002,0.053-0.002,0.078-0.004c0.031-0.004,0.061-0.008,0.091-0.013c0.051-0.006,0.1-0.017,0.149-0.024C125.154,49.125,125.049,49.141,124.939,49.15" />
		<path clip-path="url(#SVGID_2_)" fill="#B02A30" d="M120.882,52.358c-0.006-0.002-0.013-0.004-0.02-0.006C120.869,52.354,120.876,52.356,120.882,52.358" />
		<path clip-path="url(#SVGID_2_)" fill="#B02A30" d="M124.037,49.13c0.018,0.002,0.033,0.008,0.051,0.01c0.019,0.002,0.04,0.002,0.059,0.004c-0.048-0.005-0.094-0.014-0.141-0.02C124.017,49.125,124.026,49.128,124.037,49.13" />
		<path clip-path="url(#SVGID_2_)" fill="#B02A30" d="M106.083,49.06c0,0.001,0,0.001,0,0.002c0.035-0.008,0.071-0.013,0.105-0.021c0.007-0.002,0.014-0.004,0.021-0.006c0.104-0.027,0.204-0.058,0.303-0.093c0.001,0,0.002,0,0.003,0c1.457-0.512,2.417-1.833,3.07-3.295h-0.002C108.867,47.248,107.783,48.677,106.083,49.06" />
		<path clip-path="url(#SVGID_2_)" fill="#B02A30" d="M120.532,52.231c-0.016-0.006-0.031-0.011-0.047-0.018C120.501,52.22,120.516,52.225,120.532,52.231" />
		<path clip-path="url(#SVGID_2_)" fill="#B02A30" d="M128.747,46.149c-0.738,1.442-1.815,2.658-3.43,2.949c0.041-0.007,0.084-0.012,0.126-0.021c0.034-0.007,0.068-0.014,0.102-0.022c0.118-0.027,0.233-0.062,0.345-0.1c0.023-0.007,0.046-0.015,0.069-0.023c0.116-0.042,0.228-0.089,0.337-0.141c0.037-0.017,0.072-0.036,0.108-0.054c0.08-0.041,0.159-0.085,0.236-0.131c0.038-0.023,0.077-0.047,0.116-0.071c0.08-0.052,0.159-0.107,0.236-0.164c0.008-0.006,0.016-0.012,0.024-0.019c0.013-0.01,0.027-0.02,0.041-0.029c0.014-0.011,0.028-0.023,0.042-0.034c0.084-0.066,0.166-0.136,0.246-0.208c0.004-0.004,0.007-0.007,0.012-0.011c0.032-0.03,0.063-0.062,0.095-0.093c0.06-0.058,0.119-0.117,0.177-0.179c0.02-0.021,0.039-0.043,0.059-0.063c0.021-0.024,0.042-0.047,0.063-0.071c0.05-0.057,0.099-0.115,0.148-0.175c0.037-0.046,0.074-0.091,0.11-0.14c0.046-0.059,0.09-0.12,0.133-0.182c0.025-0.035,0.051-0.069,0.075-0.104c0.006-0.011,0.013-0.02,0.019-0.028c0.012-0.019,0.023-0.036,0.035-0.053c0.013-0.021,0.026-0.041,0.039-0.062c0.04-0.061,0.08-0.122,0.118-0.184c0.007-0.012,0.014-0.023,0.02-0.035c0.032-0.052,0.063-0.106,0.095-0.16c0.03-0.054,0.061-0.108,0.091-0.163c0.034-0.062,0.068-0.125,0.101-0.188c0.004-0.009,0.008-0.018,0.012-0.025C128.747,46.162,128.747,46.155,128.747,46.149" />
		<path clip-path="url(#SVGID_2_)" fill="#B02A30" d="M124.896,49.152c-0.111,0.008-0.223,0.015-0.338,0.015c-0.067,0-0.13-0.006-0.194-0.009c0.028,0.002,0.055,0.005,0.084,0.006c0.041,0.002,0.078,0.007,0.119,0.007C124.682,49.17,124.788,49.16,124.896,49.152" />
		<path clip-path="url(#SVGID_2_)" fill="#B02A30" d="M119.728,51.845c0.059,0.034,0.118,0.065,0.179,0.097c-0.057-0.028-0.113-0.06-0.168-0.091C119.734,51.848,119.73,51.847,119.728,51.845" />
		<path clip-path="url(#SVGID_2_)" fill="#B02A30" d="M123.35,48.953c0.012,0.005,0.023,0.011,0.035,0.016c0.023,0.01,0.049,0.016,0.072,0.023C123.421,48.979,123.385,48.966,123.35,48.953" />
		<path clip-path="url(#SVGID_2_)" fill="#B02A30" d="M111.301,36.823c0.004,0.034,0.007,0.071,0.009,0.108c-0.001-0.014-0.003-0.027-0.005-0.041c0.001,0.006,0.001,0.013,0.001,0.02c0.01,0.108,0.016,0.218,0.021,0.328c0.004,0.089,0.01,0.176,0.011,0.265c0.001,0.095-0.002,0.19-0.003,0.286c-0.002,0.109-0.002,0.218-0.007,0.328c0,0.007-0.001,0.013-0.001,0.02h0.011c0-0.002,0-0.003,0-0.005c0.001,0.002,0.001,0.003,0.002,0.005h4.872c0.004-0.072,0.01-0.147,0.013-0.217c0.001-0.048,0.002-0.095,0.003-0.142c0.006-0.218,0.007-0.431,0.002-0.638c-0.001-0.026,0-0.052-0.001-0.078c-0.013-0.473-0.053-0.916-0.115-1.332c-0.005-0.032-0.011-0.064-0.016-0.096c-0.029-0.181-0.062-0.356-0.101-0.526c-0.003-0.017-0.006-0.036-0.01-0.053C114.28,35.309,112.69,35.925,111.301,36.823" />
		<path clip-path="url(#SVGID_2_)" fill="#B02A30" d="M121.854,38.137c0.218-0.744,0.498-1.457,0.843-2.129c-0.898-0.427-1.875-0.74-2.927-0.914c-0.126,0.194-0.249,0.395-0.369,0.602c-0.02,0.036-0.04,0.074-0.061,0.109c-0.094,0.166-0.186,0.336-0.276,0.511c-0.031,0.059-0.061,0.119-0.091,0.18c-0.083,0.166-0.164,0.335-0.243,0.508c-0.026,0.057-0.052,0.113-0.077,0.17c-0.137,0.307-0.266,0.631-0.391,0.963H121.854z" />
		<path clip-path="url(#SVGID_2_)" fill="#00A651" d="M128.417,51.795c0.037-0.018,0.074-0.031,0.111-0.05c0.001-0.001,0.001-0.002,0.001-0.003c-0.026,0.013-0.053,0.024-0.08,0.037C128.438,51.785,128.427,51.791,128.417,51.795" />
		<path clip-path="url(#SVGID_2_)" fill="#00A651" d="M127.924,52.014c0.075-0.031,0.15-0.064,0.224-0.098c-0.043,0.019-0.086,0.037-0.129,0.055C127.987,51.984,127.957,52.001,127.924,52.014" />
		<path clip-path="url(#SVGID_2_)" fill="#00A651" d="M109.961,51.274c-0.106,0.066-0.213,0.13-0.321,0.191C109.749,51.404,109.855,51.34,109.961,51.274" />
		<path clip-path="url(#SVGID_2_)" fill="#00A651" d="M127.563,52.15c-0.08,0.029-0.161,0.06-0.242,0.086C127.402,52.209,127.483,52.179,127.563,52.15" />
		<path clip-path="url(#SVGID_2_)" fill="#00A651" d="M129.356,44.752c-0.02,0.057-0.04,0.111-0.061,0.166C129.316,44.864,129.336,44.809,129.356,44.752" />
		<path clip-path="url(#SVGID_2_)" fill="#00A651" d="M129.106,45.397c0.002-0.006,0.005-0.012,0.007-0.018c0.037-0.088,0.073-0.177,0.108-0.266c0-0.001,0-0.001,0-0.002c0.002-0.003,0.003-0.007,0.005-0.011c-0.04,0.102-0.082,0.204-0.124,0.306C129.104,45.403,129.105,45.4,129.106,45.397" />
		<path clip-path="url(#SVGID_2_)" fill="#00A651" d="M123.293,48.926c-0.074-0.032-0.148-0.064-0.216-0.104C123.146,48.862,123.22,48.894,123.293,48.926" />
		<path clip-path="url(#SVGID_2_)" fill="#00A651" d="M129.038,45.555c-0.034,0.076-0.068,0.153-0.104,0.229C128.97,45.708,129.004,45.631,129.038,45.555" />
		<path clip-path="url(#SVGID_2_)" fill="#00A651" d="M126.972,52.343c-0.072,0.021-0.144,0.044-0.217,0.063C126.828,52.387,126.899,52.365,126.972,52.343" />
		<path clip-path="url(#SVGID_2_)" fill="#00A651" d="M113.606,47.389c-0.323,0.556-0.667,1.063-1.03,1.522C112.939,48.452,113.283,47.945,113.606,47.389" />
		<path clip-path="url(#SVGID_2_)" fill="#00A651" d="M111.225,50.333c-0.117,0.102-0.233,0.202-0.353,0.298C110.992,50.536,111.107,50.435,111.225,50.333" />
		<path clip-path="url(#SVGID_2_)" fill="#00A651" d="M112.505,48.997c-0.155,0.191-0.313,0.378-0.474,0.554C112.192,49.375,112.35,49.188,112.505,48.997" />
		<path clip-path="url(#SVGID_2_)" fill="#00A651" d="M109.31,51.647c-0.1,0.052-0.201,0.1-0.303,0.148C109.109,51.748,109.21,51.699,109.31,51.647" />
		<path clip-path="url(#SVGID_2_)" fill="#00A651" d="M107.967,52.22c-0.07,0.023-0.142,0.043-0.213,0.064C107.825,52.263,107.897,52.244,107.967,52.22" />
		<path clip-path="url(#SVGID_2_)" fill="#00A651" d="M108.644,51.961c-0.091,0.037-0.182,0.072-0.273,0.107C108.462,52.034,108.553,51.999,108.644,51.961" />
		<path clip-path="url(#SVGID_2_)" fill="#00A651" d="M110.6,50.838c-0.111,0.082-0.223,0.163-0.336,0.239C110.376,51.001,110.489,50.92,110.6,50.838" />
		<path clip-path="url(#SVGID_2_)" fill="#00A651" d="M111.845,49.741c-0.126,0.131-0.254,0.26-0.383,0.382C111.591,50,111.719,49.872,111.845,49.741" />
		<path clip-path="url(#SVGID_2_)" fill="#00A651" d="M122.969,48.752c-0.055-0.036-0.111-0.071-0.162-0.111C122.858,48.681,122.915,48.716,122.969,48.752" />
		<path clip-path="url(#SVGID_2_)" fill="#00A651" d="M121.799,46.742c-0.006-0.034-0.012-0.069-0.018-0.104C121.787,46.672,121.793,46.708,121.799,46.742" />
		<path clip-path="url(#SVGID_2_)" fill="#00A651" d="M126.373,52.5c-0.065,0.015-0.13,0.032-0.196,0.045C126.243,52.532,126.308,52.514,126.373,52.5" />
		<path clip-path="url(#SVGID_2_)" fill="#00A651" d="M121.745,46.381c-0.004-0.036-0.008-0.072-0.011-0.108C121.737,46.309,121.741,46.345,121.745,46.381" />
		<path clip-path="url(#SVGID_2_)" fill="#00A651" d="M121.875,47.09c-0.009-0.034-0.018-0.069-0.026-0.104C121.857,47.021,121.866,47.056,121.875,47.09" />
		<path clip-path="url(#SVGID_2_)" fill="#00A651" d="M123.799,52.783L123.799,52.783c-0.196,0-0.389-0.006-0.581-0.017C123.409,52.777,123.603,52.783,123.799,52.783" />
		<path clip-path="url(#SVGID_2_)" fill="#00A651" d="M121.712,46.012c-0.002-0.04-0.005-0.079-0.006-0.12C121.708,45.933,121.71,45.972,121.712,46.012" />
		<path clip-path="url(#SVGID_2_)" fill="#00A651" d="M124.533,52.758c-0.045,0.003-0.089,0.007-0.133,0.01C124.444,52.765,124.488,52.761,124.533,52.758" />
		<path clip-path="url(#SVGID_2_)" fill="#00A651" d="M125.77,52.619c-0.059,0.011-0.119,0.022-0.179,0.031C125.65,52.641,125.709,52.629,125.77,52.619" />
		<path clip-path="url(#SVGID_2_)" fill="#00A651" d="M125.161,52.705c-0.054,0.006-0.109,0.014-0.163,0.021C125.052,52.718,125.106,52.71,125.161,52.705" />
		<path clip-path="url(#SVGID_2_)" fill="#00A651" d="M122.462,48.302c-0.032-0.038-0.064-0.075-0.093-0.115C122.398,48.227,122.431,48.264,122.462,48.302" />
		<path clip-path="url(#SVGID_2_)" fill="#00A651" d="M122.695,48.543c-0.042-0.037-0.084-0.074-0.123-0.114C122.611,48.469,122.653,48.506,122.695,48.543" />
		<path clip-path="url(#SVGID_2_)" fill="#00A651" d="M121.977,47.424c-0.013-0.036-0.026-0.071-0.037-0.108C121.951,47.353,121.964,47.388,121.977,47.424" />
		<path clip-path="url(#SVGID_2_)" fill="#00A651" d="M122.268,48.034c-0.024-0.038-0.048-0.075-0.07-0.114C122.22,47.958,122.244,47.996,122.268,48.034" />
		<path clip-path="url(#SVGID_2_)" fill="#00A651" d="M114.201,46.245c0.093-0.195,0.185-0.392,0.273-0.597h-0.003C114.383,45.852,114.293,46.05,114.201,46.245" />
		<path clip-path="url(#SVGID_2_)" fill="#00A651" d="M122.107,47.74c-0.017-0.037-0.035-0.073-0.051-0.111C122.072,47.667,122.09,47.703,122.107,47.74" />
		<path clip-path="url(#SVGID_2_)" fill="#00A651" d="M126.992,48.372c-0.077,0.057-0.155,0.111-0.236,0.164c0.004-0.002,0.008-0.005,0.012-0.008c0.012-0.007,0.024-0.015,0.036-0.022c0.02-0.013,0.04-0.027,0.06-0.041C126.907,48.434,126.95,48.403,126.992,48.372" />
		<path clip-path="url(#SVGID_2_)" fill="#00A651" d="M119.738,51.851c0.055,0.031,0.111,0.062,0.168,0.092c0.073,0.039,0.146,0.078,0.221,0.114c0.023,0.011,0.048,0.021,0.072,0.031c0.001,0,0.002,0.001,0.004,0.001C120.043,52.017,119.888,51.937,119.738,51.851" />
		<path clip-path="url(#SVGID_2_)" fill="#00A651" d="M126.64,48.607c-0.077,0.046-0.156,0.089-0.236,0.13c0.033-0.017,0.068-0.033,0.1-0.051c0.013-0.007,0.026-0.013,0.038-0.02c0.004-0.003,0.008-0.005,0.012-0.007C126.583,48.643,126.611,48.624,126.64,48.607" />
		<path clip-path="url(#SVGID_2_)" fill="#00A651" d="M117.05,47.926c0.049,0.226,0.107,0.439,0.17,0.646C117.157,48.366,117.099,48.152,117.05,47.926" />
		<path clip-path="url(#SVGID_2_)" fill="#00A651" d="M118.791,51.157c-0.262-0.241-0.502-0.512-0.717-0.814C118.289,50.645,118.529,50.916,118.791,51.157" />
		<path clip-path="url(#SVGID_2_)" fill="#00A651" d="M116.922,47.179c0.921-0.649,1.941-1.166,3.03-1.532h-3.127C116.826,46.194,116.859,46.704,116.922,47.179" />
		<path clip-path="url(#SVGID_2_)" fill="#00A651" d="M122.545,52.713c0.184,0.021,0.37,0.036,0.559,0.047C122.916,52.75,122.729,52.735,122.545,52.713" />
		<path clip-path="url(#SVGID_2_)" fill="#00A651" d="M128.591,46.46c0.01-0.018,0.019-0.035,0.028-0.052c0.006-0.01,0.01-0.019,0.015-0.028c-0.03,0.055-0.061,0.109-0.092,0.163C128.559,46.515,128.575,46.489,128.591,46.46" />
		<path clip-path="url(#SVGID_2_)" fill="#00A651" d="M118.838,51.201c0.132,0.117,0.268,0.229,0.41,0.333C119.106,51.43,118.97,51.318,118.838,51.201" />
		<path clip-path="url(#SVGID_2_)" fill="#00A651" d="M116.929,47.229c0.033,0.241,0.072,0.475,0.121,0.696C117.001,47.704,116.962,47.469,116.929,47.229" />
		<path clip-path="url(#SVGID_2_)" fill="#00A651" d="M117.243,48.647c0.131,0.411,0.291,0.787,0.477,1.129C117.534,49.434,117.375,49.058,117.243,48.647" />
		<path clip-path="url(#SVGID_2_)" fill="#00A651" d="M117.744,49.82c0.093,0.168,0.193,0.328,0.299,0.479C117.937,50.148,117.836,49.988,117.744,49.82" />
		<path clip-path="url(#SVGID_2_)" fill="#00A651" d="M128.022,47.335c0.002-0.004,0.005-0.008,0.007-0.011c0.019-0.024,0.037-0.051,0.056-0.076s0.038-0.054,0.058-0.079c-0.044,0.061-0.088,0.121-0.134,0.182C128.014,47.346,128.018,47.34,128.022,47.335" />
		<path clip-path="url(#SVGID_2_)" fill="#00A651" d="M126.2,48.835c0.02-0.009,0.04-0.016,0.059-0.024c0.013-0.006,0.025-0.014,0.037-0.02c-0.109,0.053-0.221,0.1-0.337,0.141c0.006-0.001,0.011-0.003,0.016-0.005C126.052,48.899,126.126,48.868,126.2,48.835" />
		<path clip-path="url(#SVGID_2_)" fill="#00A651" d="M125.676,49.023c0.068-0.02,0.135-0.04,0.201-0.063c0.005-0.002,0.009-0.003,0.014-0.005c-0.112,0.038-0.227,0.072-0.345,0.1c0.006-0.001,0.011-0.002,0.017-0.004C125.601,49.042,125.639,49.033,125.676,49.023" />
		<path clip-path="url(#SVGID_2_)" fill="#00A651" d="M123.385,48.969c0.081,0.031,0.168,0.057,0.255,0.081c0,0,0,0,0-0.002c-0.063-0.017-0.123-0.035-0.183-0.057C123.434,48.983,123.408,48.978,123.385,48.969" />
		<path clip-path="url(#SVGID_2_)" fill="#00A651" d="M125.018,49.146c-0.025,0.002-0.052,0.002-0.078,0.004c-0.014,0.001-0.029,0.001-0.043,0.002c-0.108,0.008-0.216,0.018-0.328,0.018c-0.042,0-0.079-0.005-0.119-0.006c0.04,0.001,0.075,0.008,0.117,0.008c0.086,0,0.169-0.006,0.253-0.011c0.03-0.001,0.061-0.001,0.09-0.004c0.036-0.002,0.07-0.007,0.105-0.011H125.018" />
		<path clip-path="url(#SVGID_2_)" fill="#00A651" d="M124.064,49.136c0.005,0.001,0.01,0.002,0.016,0.003c0.002,0,0.005,0,0.008,0c-0.018-0.002-0.034-0.006-0.051-0.009C124.046,49.132,124.055,49.135,124.064,49.136" />
		<path clip-path="url(#SVGID_2_)" fill="#00A651" d="M127.809,47.6c0.028-0.033,0.055-0.066,0.083-0.101c0.002-0.003,0.005-0.007,0.007-0.01c-0.049,0.06-0.098,0.118-0.148,0.176C127.77,47.643,127.79,47.623,127.809,47.6" />
		<path clip-path="url(#SVGID_2_)" fill="#00A651" d="M125.317,49.099c-0.019,0.003-0.039,0.007-0.059,0.01c-0.05,0.008-0.098,0.019-0.149,0.025c0.044-0.007,0.089-0.011,0.132-0.018c0.039-0.006,0.079-0.014,0.118-0.021c0.028-0.005,0.055-0.013,0.084-0.019C125.402,49.085,125.359,49.091,125.317,49.099" />
		<path clip-path="url(#SVGID_2_)" fill="#00A651" d="M119.26,51.542c0.141,0.103,0.287,0.196,0.437,0.284C119.547,51.738,119.401,51.644,119.26,51.542" />
		<path clip-path="url(#SVGID_2_)" fill="#00A651" d="M121.362,52.499c0.174,0.045,0.351,0.085,0.532,0.118C121.713,52.583,121.537,52.543,121.362,52.499" />
		<path clip-path="url(#SVGID_2_)" fill="#00A651" d="M127.099,48.29c0.007-0.006,0.014-0.011,0.022-0.017c0.043-0.036,0.087-0.072,0.13-0.109c0.019-0.017,0.038-0.033,0.057-0.05c0.013-0.011,0.025-0.021,0.037-0.033C127.265,48.154,127.183,48.223,127.099,48.29" />
		<path clip-path="url(#SVGID_2_)" fill="#00A651" d="M113.713,47.195c0.121-0.216,0.239-0.436,0.354-0.665C113.952,46.759,113.833,46.979,113.713,47.195" />
		<path clip-path="url(#SVGID_2_)" fill="#00A651" d="M128.428,46.739c-0.038,0.062-0.078,0.123-0.118,0.184c0.035-0.053,0.069-0.104,0.102-0.158c0.002-0.002,0.003-0.004,0.004-0.006C128.42,46.751,128.424,46.745,128.428,46.739" />
		<path clip-path="url(#SVGID_2_)" fill="#00A651" d="M128.735,46.193c0.007-0.013,0.014-0.026,0.021-0.039c0.01-0.021,0.019-0.04,0.029-0.06c0.031-0.061,0.062-0.121,0.091-0.183c-0.041,0.086-0.085,0.171-0.128,0.255C128.743,46.175,128.739,46.185,128.735,46.193" />
		<path clip-path="url(#SVGID_2_)" fill="#00A651" d="M121.951,52.626c0.171,0.031,0.345,0.057,0.52,0.078C122.296,52.683,122.123,52.658,121.951,52.626" />
		<path clip-path="url(#SVGID_2_)" fill="#00A651" d="M127.453,47.978c0.007-0.007,0.015-0.014,0.022-0.021c0.036-0.035,0.072-0.07,0.107-0.106c0.016-0.017,0.032-0.034,0.048-0.052C127.571,47.861,127.512,47.92,127.453,47.978" />
		<path clip-path="url(#SVGID_2_)" fill="#00A651" d="M106.209,49.035c-0.007,0.002-0.014,0.004-0.021,0.006C106.195,49.039,106.203,49.037,106.209,49.035" />
		<polyline clip-path="url(#SVGID_2_)" fill="#00A651" points="106.515,48.942 106.512,48.943 106.515,48.942 	" />
		<path clip-path="url(#SVGID_2_)" fill="#00A651" d="M120.266,52.119c0.073,0.032,0.145,0.064,0.22,0.095c0.015,0.006,0.031,0.012,0.047,0.018c0.108,0.042,0.218,0.083,0.33,0.12c0.006,0.002,0.013,0.004,0.019,0.006c0.131,0.045,0.264,0.083,0.398,0.119C120.926,52.381,120.587,52.262,120.266,52.119" />
		<polyline clip-path="url(#SVGID_2_)" fill="#00A651" points="111.337,38.137 111.34,38.137 111.337,38.132 111.337,38.137 	" />
		<path clip-path="url(#SVGID_2_)" fill="#72BF44" d="M101.055,52.201c-0.085-0.035-0.169-0.072-0.252-0.11C100.886,52.129,100.97,52.166,101.055,52.201" />
		<path clip-path="url(#SVGID_2_)" fill="#72BF44" d="M100.685,52.036c-0.068-0.033-0.134-0.068-0.201-0.104C100.55,51.967,100.617,52.002,100.685,52.036" />
		<path clip-path="url(#SVGID_2_)" fill="#72BF44" d="M100.335,51.851c-0.051-0.029-0.101-0.061-0.151-0.092C100.234,51.791,100.284,51.822,100.335,51.851" />
		<path clip-path="url(#SVGID_2_)" fill="#72BF44" d="M101.446,52.346c-0.104-0.035-0.207-0.073-0.309-0.112C101.239,52.273,101.342,52.311,101.446,52.346" />
		<path clip-path="url(#SVGID_2_)" fill="#72BF44" d="M100.005,51.645c-0.034-0.021-0.066-0.047-0.099-0.07C99.938,51.598,99.971,51.623,100.005,51.645" />
		<path clip-path="url(#SVGID_2_)" fill="#72BF44" d="M99.692,51.418c-0.013-0.01-0.025-0.021-0.038-0.031C99.667,51.397,99.679,51.409,99.692,51.418" />
		<path clip-path="url(#SVGID_2_)" fill="#72BF44" d="M102.845,41.456c0.095-0.449,0.217-1.018,0.381-1.642c-0.003,0.001-0.006,0.002-0.01,0.003c-0.163,0.619-0.284,1.186-0.38,1.634c-0.128,0.611-0.297,1.401-0.414,2.244c-0.004,0.028-0.007,0.057-0.011,0.086c-0.011,0.082-0.022,0.165-0.032,0.248c-0.213,1.799-0.142,3.746,1.055,4.64C101.604,47.291,102.425,43.435,102.845,41.456" />
		<path clip-path="url(#SVGID_2_)" fill="#72BF44" d="M114.472,45.647h-2.785c0.012,0.231,0.019,0.465,0.019,0.7c0,1.48-0.245,2.884-0.677,4.15c-1.967,1.638-4.282,2.279-6.639,2.279c-1.043,0-2.024-0.129-2.904-0.418c0.883,0.292,1.867,0.423,2.913,0.423c1.141,0,2.27-0.155,3.356-0.497c0.071-0.021,0.142-0.042,0.213-0.064c0.135-0.046,0.269-0.099,0.404-0.151c0.091-0.035,0.182-0.069,0.273-0.107c0.122-0.053,0.242-0.109,0.363-0.166c0.101-0.048,0.202-0.097,0.302-0.148c0.111-0.058,0.221-0.119,0.331-0.182c0.108-0.062,0.215-0.124,0.321-0.191c0.102-0.063,0.203-0.128,0.302-0.196c0.113-0.076,0.225-0.156,0.336-0.239c0.092-0.067,0.183-0.136,0.272-0.207c0.12-0.096,0.237-0.196,0.353-0.298c0.08-0.07,0.16-0.139,0.238-0.211c0.129-0.121,0.257-0.25,0.383-0.382c0.062-0.064,0.125-0.125,0.185-0.19c0.162-0.176,0.32-0.362,0.475-0.554c0.023-0.029,0.048-0.056,0.071-0.086c0.363-0.459,0.707-0.966,1.03-1.521c0.036-0.063,0.07-0.131,0.106-0.195c0.121-0.215,0.24-0.434,0.355-0.665c0.045-0.092,0.089-0.189,0.134-0.285C114.293,46.05,114.383,45.852,114.472,45.647" />
		<path clip-path="url(#SVGID_2_)" fill="#F15A29" d="M129.625,51.104c-0.01,0.006-0.019,0.014-0.029,0.02c0.077-0.051,0.154-0.101,0.23-0.154c-0.005,0.003-0.009,0.006-0.014,0.009C129.75,51.022,129.688,51.062,129.625,51.104" />
		<path clip-path="url(#SVGID_2_)" fill="#F15A29" d="M129.049,51.462c-0.007,0.004-0.014,0.008-0.021,0.013c0.057-0.032,0.114-0.063,0.171-0.098c-0.004,0.003-0.008,0.005-0.013,0.007C129.141,51.412,129.095,51.437,129.049,51.462" />
		<path clip-path="url(#SVGID_2_)" fill="#F15A29" d="M131.385,49.599c-0.002,0.002-0.004,0.005-0.006,0.007c0.077-0.082,0.152-0.168,0.227-0.254c-0.002,0.002-0.004,0.004-0.006,0.006C131.529,49.439,131.458,49.521,131.385,49.599" />
		<path clip-path="url(#SVGID_2_)" fill="#F15A29" d="M131.134,30.616c-0.002,0-0.004-0.001-0.006-0.002c-0.011-0.003-0.021-0.006-0.032-0.008h-0.001l-0.058-0.013c-0.467-0.119-0.962-0.198-1.475-0.241c-0.003,0-0.005-0.001-0.008-0.001c-3.027,0.848-5.448,2.915-6.858,5.657c-0.345,0.671-0.624,1.384-0.842,2.128h1.288c0.79-2.116,2.158-4.217,4.656-4.217c0.506,0,0.932,0.085,1.287,0.234c-0.355-0.147-0.774-0.228-1.278-0.228c0.629,0,1.133,0.128,1.533,0.353c0.073,0.041,0.141,0.086,0.207,0.134c-0.06-0.045-0.125-0.087-0.189-0.123c0.07,0.039,0.141,0.085,0.205,0.132v0.001c1.88,1.367,1.064,5.201,0.674,7.033c-0.077,0.367-0.169,0.799-0.282,1.267c2.714-1.877,4.669-4.775,5.306-8.141c-0.166-0.562-0.392-1.057-0.661-1.496c-0.012-0.024-0.027-0.048-0.042-0.072c-0.056-0.086-0.108-0.165-0.166-0.244c-0.03-0.044-0.062-0.084-0.093-0.125c-0.05-0.067-0.103-0.135-0.156-0.2c-0.024-0.028-0.047-0.054-0.072-0.08c-0.025-0.029-0.048-0.053-0.072-0.081c-0.046-0.048-0.087-0.097-0.131-0.144c-0.102-0.099-0.205-0.198-0.311-0.287l-0.01-0.012c-0.073-0.062-0.144-0.123-0.22-0.179c-0.04-0.032-0.084-0.063-0.126-0.093c-0.143-0.105-0.295-0.204-0.45-0.291c-0.03-0.018-0.064-0.038-0.096-0.054v-0.001c-0.082-0.046-0.167-0.091-0.256-0.132c0-0.001-0.001-0.004-0.002-0.004c-0.019-0.01-0.039-0.019-0.061-0.029c-0.045-0.021-0.083-0.042-0.127-0.061c-0.02-0.008-0.042-0.018-0.064-0.027c-0.048-0.021-0.1-0.042-0.149-0.061c-0.147-0.063-0.296-0.117-0.45-0.169c-0.009-0.003-0.018-0.006-0.027-0.01C131.392,30.691,131.263,30.652,131.134,30.616" />
		<path clip-path="url(#SVGID_2_)" fill="#F15A29" d="M130.208,50.681c-0.016,0.012-0.032,0.023-0.047,0.037c0.073-0.058,0.147-0.11,0.219-0.17c-0.003,0.002-0.006,0.005-0.009,0.007C130.318,50.599,130.263,50.638,130.208,50.681" />
		<path clip-path="url(#SVGID_2_)" fill="#F15A29" d="M132.218,48.587L132.218,48.587c0.135-0.183,0.268-0.372,0.398-0.569C132.486,48.215,132.353,48.405,132.218,48.587" />
		<path clip-path="url(#SVGID_2_)" fill="#F15A29" d="M130.882,50.107c-0.002,0.002-0.004,0.005-0.006,0.006c0.054-0.05,0.107-0.104,0.16-0.157c-0.002,0.002-0.005,0.004-0.008,0.008C130.979,50.011,130.932,50.061,130.882,50.107" />
		<path clip-path="url(#SVGID_2_)" fill="#F15A29" d="M127.87,52.035c-0.004,0.002-0.008,0.004-0.013,0.005c0.013-0.005,0.025-0.009,0.038-0.015c-0.004,0.002-0.009,0.004-0.012,0.005C127.878,52.032,127.875,52.033,127.87,52.035" />
		<path clip-path="url(#SVGID_2_)" fill="#F15A29" d="M128.465,51.771c-0.005,0.003-0.011,0.006-0.016,0.008c0.026-0.013,0.053-0.022,0.08-0.035c0.008-0.005,0.016-0.01,0.024-0.014c-0.004,0.002-0.008,0.003-0.012,0.005C128.516,51.749,128.49,51.759,128.465,51.771" />
		<path clip-path="url(#SVGID_2_)" fill="#F15A29" d="M131.868,49.042c-0.002,0.002-0.003,0.005-0.005,0.007c0.092-0.113,0.183-0.229,0.272-0.348c-0.001,0.001-0.002,0.003-0.004,0.004C132.044,48.821,131.957,48.934,131.868,49.042" />
		<path clip-path="url(#SVGID_2_)" fill="#F15A29" d="M131.995,30.908l0.025,0.008c0.045,0.017,0.084,0.032,0.124,0.053c0.022,0.009,0.045,0.019,0.064,0.027h0.002c-0.074-0.034-0.15-0.064-0.225-0.095c-0.14-0.057-0.281-0.11-0.426-0.157c-0.005-0.002-0.009-0.004-0.014-0.005C131.7,30.791,131.848,30.845,131.995,30.908" />
		<path clip-path="url(#SVGID_2_)" fill="#F15A29" d="M132.335,31.057c0.022,0.01,0.043,0.018,0.061,0.029c0.089,0.043,0.174,0.089,0.259,0.136c0.031,0.017,0.065,0.037,0.095,0.055l0.032,0.015c0.128,0.076,0.254,0.158,0.374,0.244l0.044,0.032l0.002,0.001c0.043,0.028,0.084,0.06,0.124,0.091c0.076,0.057,0.148,0.117,0.22,0.18l0.01,0.011l0.023,0.018c0.1,0.084,0.196,0.177,0.289,0.27c0.043,0.047,0.085,0.096,0.13,0.144c0.024,0.027,0.047,0.052,0.072,0.081c0.025,0.026,0.048,0.052,0.072,0.08c0.053,0.064,0.106,0.133,0.157,0.2c0.03,0.041,0.062,0.081,0.092,0.125c0.058,0.079,0.11,0.158,0.166,0.244c0.015,0.024,0.03,0.048,0.043,0.071c0.836,1.353,1.217,3.273,0.961,5.895c0.349-3.546-0.469-5.805-1.995-7.123v-0.001c-0.125-0.108-0.254-0.21-0.388-0.305c-0.003-0.003-0.006-0.005-0.01-0.007c-0.128-0.092-0.261-0.178-0.398-0.258c-0.028-0.016-0.056-0.031-0.084-0.046c-0.098-0.056-0.199-0.109-0.301-0.16c-0.044-0.021-0.088-0.043-0.132-0.063C132.281,31.03,132.307,31.043,132.335,31.057" />
		<path clip-path="url(#SVGID_2_)" fill="#F15A29" d="M131.464,30.712l0.055,0.017c-0.02-0.006-0.04-0.014-0.061-0.02c-0.059-0.018-0.119-0.035-0.179-0.052C131.341,30.675,131.403,30.691,131.464,30.712" />
		<path clip-path="url(#SVGID_2_)" fill="#F15A29" d="M131.077,30.601c-0.481-0.123-0.987-0.206-1.515-0.249c0.513,0.043,1.007,0.122,1.474,0.241L131.077,30.601z" />
		<path clip-path="url(#SVGID_2_)" fill="#F15A29" d="M128.252,47.013c0.007-0.01,0.013-0.021,0.019-0.03c-0.011,0.019-0.023,0.036-0.035,0.053L128.252,47.013z" />
		<path clip-path="url(#SVGID_2_)" fill="#F15A29" d="M126.64,48.607c-0.029,0.017-0.057,0.036-0.086,0.053c0.037-0.021,0.073-0.044,0.11-0.065c0.035-0.021,0.069-0.043,0.104-0.065c-0.004,0.002-0.008,0.005-0.012,0.007C126.718,48.561,126.679,48.583,126.64,48.607" />
		<path clip-path="url(#SVGID_2_)" fill="#F15A29" d="M126.296,48.792c-0.013,0.006-0.024,0.014-0.037,0.02c0.04-0.02,0.08-0.039,0.119-0.06c0.042-0.021,0.085-0.043,0.126-0.064c-0.032,0.017-0.067,0.033-0.1,0.05C126.368,48.755,126.333,48.775,126.296,48.792" />
		<path clip-path="url(#SVGID_2_)" fill="#F15A29" d="M127.356,48.071c0.01-0.009,0.02-0.019,0.03-0.027c0.03-0.028,0.058-0.058,0.088-0.086c-0.007,0.007-0.015,0.014-0.022,0.021C127.42,48.009,127.389,48.041,127.356,48.071" />
		<path clip-path="url(#SVGID_2_)" fill="#F15A29" d="M129.114,45.38c-0.002,0.006-0.005,0.011-0.007,0.017C129.108,45.391,129.111,45.386,129.114,45.38" />
		<path clip-path="url(#SVGID_2_)" fill="#F15A29" d="M128.759,46.147c0.009-0.018,0.018-0.034,0.026-0.053c-0.01,0.021-0.019,0.04-0.029,0.06C128.757,46.152,128.758,46.149,128.759,46.147" />
		<polyline clip-path="url(#SVGID_2_)" fill="#F15A29" points="129.222,45.112 129.222,45.114 129.222,45.112 	" />
		<path clip-path="url(#SVGID_2_)" fill="#F15A29" d="M126.864,48.463c0.018-0.013,0.037-0.024,0.054-0.037c0.033-0.023,0.066-0.049,0.098-0.072c-0.008,0.006-0.016,0.011-0.024,0.017C126.95,48.403,126.907,48.434,126.864,48.463" />
		<path clip-path="url(#SVGID_2_)" fill="#F15A29" d="M125.545,49.055c-0.034,0.009-0.069,0.016-0.103,0.022c-0.028,0.006-0.055,0.013-0.084,0.018c0.01-0.002,0.021-0.003,0.031-0.005c0.056-0.011,0.111-0.023,0.166-0.037c0.003,0,0.004-0.001,0.007-0.002C125.557,49.053,125.552,49.054,125.545,49.055" />
		<path clip-path="url(#SVGID_2_)" fill="#F15A29" d="M127.582,47.851c0.036-0.038,0.071-0.077,0.107-0.116c-0.02,0.021-0.04,0.043-0.059,0.064C127.614,47.816,127.598,47.834,127.582,47.851" />
		<path clip-path="url(#SVGID_2_)" fill="#F15A29" d="M127.819,47.588c0.011-0.013,0.022-0.027,0.033-0.04c0.013-0.016,0.026-0.033,0.039-0.049c-0.027,0.033-0.054,0.068-0.082,0.101C127.812,47.596,127.816,47.592,127.819,47.588" />
		<path clip-path="url(#SVGID_2_)" fill="#F15A29" d="M128.62,46.409c-0.01,0.017-0.019,0.035-0.028,0.052C128.601,46.444,128.61,46.425,128.62,46.409" />
		<path clip-path="url(#SVGID_2_)" fill="#F15A29" d="M124.566,49.171c0.009,0,0.017-0.001,0.026-0.001c0.077,0,0.151-0.005,0.226-0.009C124.735,49.166,124.652,49.171,124.566,49.171" />
		<path clip-path="url(#SVGID_2_)" fill="#F15A29" d="M127.158,48.243c0.032-0.025,0.062-0.053,0.092-0.08c-0.043,0.038-0.086,0.074-0.13,0.11C127.133,48.263,127.146,48.253,127.158,48.243" />
		<path clip-path="url(#SVGID_2_)" fill="#F15A29" d="M128.416,46.758c0.004-0.006,0.008-0.013,0.012-0.019c0.007-0.013,0.013-0.024,0.021-0.035c-0.007,0.011-0.014,0.022-0.021,0.034C128.424,46.746,128.42,46.752,128.416,46.758" />
		<path clip-path="url(#SVGID_2_)" fill="#F15A29" d="M125.676,49.023c0.01-0.004,0.02-0.006,0.03-0.009c0.053-0.015,0.104-0.031,0.156-0.049c0.005-0.002,0.01-0.003,0.015-0.005C125.811,48.983,125.744,49.003,125.676,49.023" />
		<path clip-path="url(#SVGID_2_)" fill="#F15A29" d="M125.975,48.927c0.01-0.004,0.02-0.006,0.03-0.01c0.057-0.022,0.112-0.046,0.166-0.069c0.01-0.004,0.019-0.008,0.029-0.012C126.126,48.868,126.052,48.899,125.975,48.927" />
		<path clip-path="url(#SVGID_2_)" fill="#F15A29" d="M128.062,47.281c0.008-0.01,0.015-0.021,0.023-0.031c-0.019,0.024-0.037,0.051-0.056,0.075L128.062,47.281z" />
		<path clip-path="url(#SVGID_2_)" fill="#F15A29" d="M125.109,49.134c-0.03,0.004-0.061,0.008-0.092,0.012h-0.002c0.01-0.001,0.02-0.002,0.03-0.003c0.065-0.007,0.13-0.016,0.194-0.025c0.001,0,0.001,0,0.002-0.001C125.198,49.124,125.153,49.127,125.109,49.134" />
		<path clip-path="url(#SVGID_2_)" fill="none" stroke="#FBB040" stroke-width="0" stroke-linecap="round" stroke-linejoin="round" d="M132.397,31.086c-0.019-0.011-0.039-0.019-0.061-0.029" />
		<line clip-path="url(#SVGID_2_)" fill="none" stroke="#FBB040" stroke-width="0" stroke-linecap="round" stroke-linejoin="round" x1="131.519" y1="30.729" x2="131.519" y2="30.729" />
		<path clip-path="url(#SVGID_2_)" fill="none" stroke="#FBB040" stroke-width="0" stroke-linecap="round" stroke-linejoin="round" d="M131.519,30.729h0.002c0.009,0.003,0.016,0.006,0.025,0.009" />
		<path clip-path="url(#SVGID_2_)" fill="none" stroke="#FBB040" stroke-width="0" stroke-linecap="round" stroke-linejoin="round" d="M131.995,30.908c-0.147-0.063-0.295-0.117-0.45-0.169" />
		<path clip-path="url(#SVGID_2_)" fill="none" stroke="#FBB040" stroke-width="0" stroke-linecap="round" stroke-linejoin="round" d="M133.868,32.139c0.043,0.047,0.085,0.096,0.131,0.144c0.023,0.027,0.046,0.052,0.071,0.08c0.025,0.027,0.049,0.052,0.072,0.081c0.053,0.064,0.107,0.132,0.157,0.199c0.03,0.042,0.062,0.082,0.092,0.126c0.058,0.079,0.111,0.158,0.166,0.243c0.016,0.025,0.03,0.049,0.043,0.072" />
		<path clip-path="url(#SVGID_2_)" fill="none" stroke="#FBB040" stroke-width="0" stroke-linecap="round" stroke-linejoin="round" d="M133.327,31.661c0.076,0.057,0.148,0.117,0.22,0.179l0.01,0.012" />
		<line clip-path="url(#SVGID_2_)" fill="none" stroke="#FBB040" stroke-width="0" stroke-linecap="round" stroke-linejoin="round" x1="129.555" y1="30.351" x2="129.562" y2="30.352" />
		<path clip-path="url(#SVGID_2_)" fill="none" stroke="#FBB040" stroke-width="0" stroke-linecap="round" stroke-linejoin="round" d="M132.208,30.996c-0.019-0.008-0.042-0.018-0.064-0.027" />
		<path clip-path="url(#SVGID_2_)" fill="none" stroke="#FBB040" stroke-width="0" stroke-linecap="round" stroke-linejoin="round" d="M129.562,30.352c0.513,0.043,1.007,0.122,1.474,0.241" />
		<path clip-path="url(#SVGID_2_)" fill="#FBB040" d="M125.864,34.426c0.557-0.316,1.2-0.502,1.943-0.502c0.504,0,0.923,0.081,1.278,0.229c-0.355-0.15-0.782-0.235-1.288-0.235c-2.497,0-3.865,2.101-4.655,4.218h0.01C123.707,36.65,124.547,35.173,125.864,34.426" />
		<path clip-path="url(#SVGID_2_)" fill="#FBB040" d="M131.134,30.616c0.129,0.036,0.258,0.075,0.385,0.113l-0.055-0.017c-0.06-0.02-0.123-0.037-0.185-0.054c-0.041-0.012-0.081-0.025-0.123-0.036c-0.011-0.003-0.022-0.007-0.033-0.01l-0.024-0.006c0.01,0.002,0.02,0.006,0.03,0.008C131.131,30.615,131.132,30.616,131.134,30.616" />
		<path clip-path="url(#SVGID_2_)" fill="#FBB040" d="M129.563,34.422V34.42c-0.064-0.046-0.136-0.092-0.206-0.131c0.065,0.036,0.13,0.078,0.19,0.122C129.552,34.415,129.558,34.418,129.563,34.422" />
		<path clip-path="url(#SVGID_2_)" fill="#FBB040" d="M128.217,47.064c0.012-0.017,0.024-0.034,0.035-0.051l-0.016,0.022C128.23,47.045,128.223,47.054,128.217,47.064" />
		<path clip-path="url(#SVGID_2_)" fill="#FBB040" d="M127.345,48.081c-0.012,0.012-0.024,0.022-0.037,0.032c0.026-0.021,0.053-0.045,0.078-0.068c-0.009,0.009-0.019,0.018-0.029,0.026C127.353,48.074,127.349,48.078,127.345,48.081" />
		<path clip-path="url(#SVGID_2_)" fill="#FBB040" d="M126.542,48.667c0.041-0.023,0.081-0.048,0.121-0.073c-0.036,0.022-0.072,0.045-0.109,0.066C126.55,48.662,126.546,48.665,126.542,48.667" />
		<path clip-path="url(#SVGID_2_)" fill="#FBB040" d="M128.022,47.335c0.014-0.019,0.027-0.036,0.04-0.055l-0.033,0.044C128.027,47.328,128.024,47.332,128.022,47.335" />
		<path clip-path="url(#SVGID_2_)" fill="#FBB040" d="M128.413,46.764c0.005-0.008,0.011-0.016,0.016-0.025c-0.004,0.007-0.008,0.014-0.013,0.02C128.415,46.76,128.414,46.762,128.413,46.764" />
		<path clip-path="url(#SVGID_2_)" fill="#FBB040" d="M126.804,48.505c0.039-0.025,0.077-0.053,0.115-0.08c-0.018,0.014-0.036,0.026-0.054,0.038C126.844,48.478,126.825,48.492,126.804,48.505" />
		<path clip-path="url(#SVGID_2_)" fill="#FBB040" d="M125.959,48.932c-0.023,0.008-0.046,0.017-0.069,0.024c-0.005,0.001-0.009,0.003-0.014,0.004c-0.005,0.002-0.01,0.004-0.015,0.005c0.048-0.016,0.096-0.031,0.144-0.049c-0.01,0.004-0.021,0.007-0.03,0.011C125.969,48.929,125.964,48.93,125.959,48.932" />
		<path clip-path="url(#SVGID_2_)" fill="#FBB040" d="M127.099,48.29c-0.014,0.012-0.028,0.022-0.042,0.033c0.034-0.026,0.068-0.052,0.101-0.08c-0.012,0.01-0.025,0.021-0.037,0.03C127.113,48.279,127.106,48.284,127.099,48.29" />
		<path clip-path="url(#SVGID_2_)" fill="#FBB040" d="M125.562,49.052c-0.002,0-0.004,0.001-0.006,0.002c0.05-0.014,0.1-0.025,0.15-0.039c-0.01,0.003-0.021,0.005-0.031,0.008C125.638,49.033,125.6,49.042,125.562,49.052" />
		<path clip-path="url(#SVGID_2_)" fill="#FBB040" d="M133.201,31.568c0.042,0.03,0.086,0.061,0.126,0.093c-0.04-0.032-0.081-0.063-0.124-0.092L133.201,31.568z" />
		<path clip-path="url(#SVGID_2_)" fill="#FBB040" d="M131.601,49.358c-0.014,0.017-0.028,0.029-0.042,0.045c-0.058,0.065-0.115,0.133-0.173,0.196C131.458,49.521,131.53,49.439,131.601,49.358" />
		<path clip-path="url(#SVGID_2_)" fill="#FBB040" d="M131.028,49.963c-0.008,0.007-0.015,0.014-0.023,0.021c-0.041,0.04-0.081,0.084-0.123,0.123C130.932,50.06,130.979,50.011,131.028,49.963" />
		<path clip-path="url(#SVGID_2_)" fill="#FBB040" d="M134.6,33.084c0.268,0.439,0.495,0.935,0.66,1.496c-0.637,3.366-2.591,6.265-5.306,8.141c0,0,0,0-0.001,0v-0.005c0,0.003-0.001,0.005-0.002,0.009c-0.152,0.632-0.345,1.33-0.595,2.027c-0.021,0.057-0.041,0.111-0.062,0.167c-0.022,0.061-0.045,0.121-0.068,0.182c-0.002,0.004-0.003,0.008-0.004,0.011c-0.001,0.001-0.001,0.001-0.001,0.002c-0.035,0.089-0.071,0.178-0.108,0.266c-0.002,0.006-0.004,0.011-0.007,0.018c-0.001,0.003-0.003,0.007-0.004,0.01c-0.021,0.049-0.043,0.099-0.064,0.147c-0.034,0.077-0.068,0.154-0.103,0.23c-0.02,0.043-0.039,0.085-0.059,0.127c-0.029,0.062-0.06,0.122-0.091,0.183c-0.008,0.019-0.017,0.035-0.026,0.054c0.002-0.003,0.003-0.008,0.005-0.01c0.476,0.224,0.929,0.486,1.368,0.77c0.756,0.482,1.461,1.041,2.086,1.68c0.135-0.183,0.268-0.372,0.398-0.568c1.085-1.653,1.968-3.803,2.555-6.563c0.189-0.889,0.315-1.711,0.39-2.477C135.817,36.356,135.437,34.438,134.6,33.084" />
		<path clip-path="url(#SVGID_2_)" fill="#FBB040" d="M129.625,51.104c0.062-0.042,0.125-0.082,0.187-0.126C129.75,51.022,129.688,51.062,129.625,51.104" />
		<path clip-path="url(#SVGID_2_)" fill="#FBB040" d="M127.883,52.03c-0.002,0.001-0.005,0.002-0.007,0.003c-0.002,0-0.004,0.001-0.006,0.002C127.875,52.033,127.879,52.032,127.883,52.03" />
		<path clip-path="url(#SVGID_2_)" fill="#FBB040" d="M132.335,31.057c-0.029-0.014-0.055-0.027-0.082-0.041c-0.007-0.003-0.014-0.007-0.021-0.01c-0.007-0.004-0.014-0.007-0.021-0.011h-0.002h-0.001C132.252,31.015,132.291,31.036,132.335,31.057" />
		<path clip-path="url(#SVGID_2_)" fill="#FBB040" d="M131.868,49.042c0.089-0.108,0.177-0.222,0.263-0.337C132.044,48.821,131.957,48.934,131.868,49.042" />
		<path clip-path="url(#SVGID_2_)" fill="#FBB040" d="M129.187,51.384c-0.023,0.015-0.046,0.025-0.069,0.038c-0.023,0.014-0.046,0.027-0.068,0.04C129.095,51.437,129.141,51.412,129.187,51.384" />
		<path clip-path="url(#SVGID_2_)" fill="#FBB040" d="M130.208,50.681c0.054-0.043,0.11-0.082,0.163-0.126C130.318,50.599,130.263,50.638,130.208,50.681" />
		<path clip-path="url(#SVGID_2_)" fill="#FBB040" d="M132.782,31.292l-0.032-0.016c0.156,0.088,0.307,0.187,0.451,0.292l-0.045-0.032C133.037,31.45,132.91,31.369,132.782,31.292" />
		<polygon clip-path="url(#SVGID_2_)" fill="#FBB040" points="131.036,30.593 131.094,30.606 131.095,30.606 131.099,30.606 131.081,30.602 131.077,30.601 	" />
		<path clip-path="url(#SVGID_2_)" fill="#FBB040" d="M132.02,30.916l-0.025-0.008c0.05,0.019,0.101,0.04,0.149,0.06C132.104,30.948,132.065,30.932,132.02,30.916" />
		<path clip-path="url(#SVGID_2_)" fill="#FBB040" d="M132.655,31.223c0.031,0.016,0.065,0.036,0.095,0.054C132.72,31.259,132.687,31.239,132.655,31.223L132.655,31.223z" />
		<path clip-path="url(#SVGID_2_)" fill="#FBB040" d="M133.58,31.869l-0.023-0.018c0.106,0.09,0.209,0.189,0.312,0.288C133.775,32.046,133.679,31.953,133.58,31.869" />
		<path clip-path="url(#SVGID_2_)" fill="#FBB040" d="M132.399,31.09c0.088,0.04,0.174,0.086,0.256,0.132c-0.085-0.047-0.17-0.093-0.258-0.136C132.398,31.086,132.399,31.088,132.399,31.09" />
		<path clip-path="url(#SVGID_2_)" fill="#FBB040" d="M126.259,48.811c-0.019,0.009-0.04,0.016-0.059,0.024c-0.01,0.004-0.019,0.008-0.029,0.013c0.07-0.03,0.139-0.063,0.207-0.097C126.339,48.772,126.299,48.792,126.259,48.811" />
		<path clip-path="url(#SVGID_2_)" fill="#FBB040" d="M128.541,51.736c-0.016,0.008-0.032,0.014-0.048,0.021c-0.009,0.004-0.018,0.009-0.028,0.015C128.491,51.759,128.516,51.749,128.541,51.736" />
		<path clip-path="url(#SVGID_2_)" fill="#FBB040" d="M125.015,49.146c-0.035,0.004-0.069,0.008-0.105,0.011c0.046-0.003,0.091-0.009,0.135-0.014C125.035,49.144,125.024,49.145,125.015,49.146" />
		<path clip-path="url(#SVGID_2_)" fill="#FBB040" d="M125.359,49.096c-0.039,0.008-0.078,0.015-0.118,0.021c-0.001,0.001-0.001,0.001-0.002,0.001c0.021-0.004,0.043-0.005,0.064-0.008c0.029-0.006,0.057-0.014,0.086-0.021C125.38,49.093,125.369,49.094,125.359,49.096" />
		<path clip-path="url(#SVGID_2_)" fill="#FBB040" d="M124.568,49.171c0.008,0,0.016-0.001,0.024-0.001c-0.009,0-0.017,0.001-0.026,0.001H124.568" />
		<path clip-path="url(#SVGID_2_)" fill="#FBB040" d="M127.853,47.548c-0.011,0.013-0.022,0.026-0.033,0.04C127.831,47.575,127.841,47.561,127.853,47.548" />
		<path clip-path="url(#SVGID_2_)" fill="#00A651" d="M124.081,49.139c-0.005-0.001-0.01-0.002-0.016-0.003C124.07,49.137,124.075,49.138,124.081,49.139" />
		<path clip-path="url(#SVGID_2_)" fill="#00A651" d="M131.723,49.217c0.047-0.055,0.093-0.111,0.14-0.168c0.001-0.003,0.003-0.005,0.004-0.006c0.089-0.11,0.177-0.222,0.264-0.337c0.001-0.002,0.002-0.003,0.004-0.005c0.028-0.038,0.058-0.072,0.086-0.111C132.061,48.81,131.893,49.017,131.723,49.217" />
		<path clip-path="url(#SVGID_2_)" fill="#00A651" d="M129.307,51.312c0.097-0.06,0.194-0.124,0.29-0.188c0.01-0.007,0.019-0.013,0.028-0.02c0.063-0.041,0.126-0.082,0.188-0.126c0.004-0.003,0.009-0.006,0.013-0.009c0.009-0.007,0.019-0.013,0.029-0.02C129.675,51.079,129.492,51.199,129.307,51.312" />
		<path clip-path="url(#SVGID_2_)" fill="#00A651" d="M129.894,50.924c0.091-0.065,0.179-0.138,0.268-0.206c0.016-0.014,0.032-0.025,0.047-0.037c0.054-0.043,0.11-0.082,0.163-0.126c0.003-0.002,0.006-0.005,0.009-0.007c0.025-0.021,0.048-0.042,0.072-0.063C130.27,50.64,130.083,50.787,129.894,50.924" />
		<path clip-path="url(#SVGID_2_)" fill="#00A651" d="M128.465,51.771c0.01-0.005,0.019-0.01,0.028-0.014c-0.156,0.076-0.314,0.147-0.474,0.214c0.044-0.018,0.087-0.036,0.13-0.055c0.089-0.039,0.179-0.078,0.268-0.121c0.01-0.005,0.021-0.011,0.032-0.017C128.454,51.777,128.46,51.774,128.465,51.771" />
		<path clip-path="url(#SVGID_2_)" fill="#00A651" d="M131.006,49.984c-0.123,0.119-0.247,0.233-0.374,0.344c0.082-0.071,0.164-0.139,0.244-0.215c0.002-0.001,0.004-0.004,0.007-0.006C130.925,50.068,130.964,50.024,131.006,49.984" />
		<path clip-path="url(#SVGID_2_)" fill="#00A651" d="M127.876,52.033c-0.214,0.086-0.43,0.165-0.648,0.235c-1.417-0.793-2.634-1.896-3.587-3.218c-0.088-0.024-0.175-0.05-0.255-0.082c-0.013-0.005-0.023-0.011-0.036-0.016c-0.019-0.008-0.037-0.017-0.056-0.026c-0.074-0.031-0.148-0.065-0.216-0.104c-0.038-0.022-0.072-0.047-0.108-0.07c-0.055-0.036-0.111-0.071-0.162-0.11c-0.04-0.031-0.076-0.065-0.113-0.1c-0.042-0.037-0.084-0.073-0.123-0.114c-0.038-0.04-0.074-0.084-0.109-0.126c-0.032-0.038-0.064-0.075-0.093-0.114c-0.036-0.051-0.069-0.103-0.102-0.154c-0.023-0.038-0.048-0.075-0.069-0.114c-0.033-0.058-0.063-0.119-0.092-0.18c-0.017-0.037-0.035-0.073-0.051-0.111c-0.028-0.065-0.054-0.135-0.078-0.205c-0.013-0.035-0.026-0.07-0.038-0.106c-0.023-0.074-0.045-0.149-0.065-0.227c-0.009-0.035-0.017-0.069-0.026-0.104c-0.018-0.08-0.035-0.162-0.05-0.244c-0.006-0.034-0.012-0.069-0.018-0.104c-0.013-0.084-0.025-0.17-0.035-0.257c-0.005-0.036-0.008-0.07-0.012-0.107c-0.009-0.086-0.016-0.173-0.021-0.262c-0.002-0.039-0.005-0.079-0.007-0.118c-0.003-0.081-0.006-0.163-0.008-0.245h-1.746c-1.089,0.364-2.109,0.883-3.03,1.53l-0.001,0.001c0.002,0.019,0.006,0.032,0.008,0.051c0.033,0.239,0.073,0.473,0.121,0.695v0.001c0.049,0.226,0.107,0.439,0.17,0.646c0.008,0.024,0.016,0.05,0.024,0.075c0.131,0.411,0.291,0.787,0.477,1.129c0.008,0.014,0.015,0.028,0.023,0.043c0.093,0.168,0.193,0.328,0.299,0.479c0.01,0.016,0.02,0.029,0.031,0.043c0.215,0.304,0.455,0.574,0.717,0.815c0.016,0.015,0.032,0.029,0.048,0.044c0.131,0.118,0.267,0.229,0.41,0.333c0.004,0.003,0.007,0.006,0.012,0.008c0.14,0.103,0.286,0.197,0.437,0.285c0.006,0.003,0.011,0.008,0.017,0.011c0.004,0.003,0.009,0.005,0.013,0.008c0.003,0.002,0.007,0.003,0.01,0.006c0.15,0.087,0.306,0.166,0.465,0.239c0.021,0.01,0.042,0.02,0.063,0.028c0.321,0.144,0.661,0.263,1.014,0.358c0.027,0.008,0.055,0.015,0.083,0.021c0.174,0.045,0.351,0.085,0.531,0.118c0.019,0.004,0.039,0.007,0.058,0.01c0.171,0.031,0.344,0.058,0.52,0.078c0.025,0.003,0.049,0.006,0.074,0.009c0.183,0.021,0.37,0.036,0.559,0.047c0.037,0.003,0.075,0.004,0.113,0.007c0.192,0.01,0.385,0.016,0.582,0.016h0.001c0.2,0,0.4-0.005,0.599-0.014c0.044-0.004,0.089-0.008,0.133-0.011c0.155-0.009,0.31-0.019,0.464-0.033c0.055-0.007,0.109-0.015,0.164-0.021c0.143-0.016,0.287-0.033,0.43-0.054c0.06-0.011,0.119-0.021,0.179-0.031c0.136-0.023,0.272-0.047,0.407-0.075c0.066-0.014,0.131-0.03,0.196-0.045c0.128-0.03,0.255-0.059,0.382-0.093c0.072-0.02,0.145-0.042,0.217-0.063c0.117-0.033,0.234-0.068,0.35-0.106c0.081-0.027,0.161-0.058,0.242-0.086c0.098-0.036,0.196-0.071,0.294-0.11c0.004-0.002,0.008-0.004,0.013-0.006C127.872,52.035,127.874,52.034,127.876,52.033" />
		<path clip-path="url(#SVGID_2_)" fill="#00A651" d="M131.559,49.403c-0.119,0.135-0.239,0.266-0.362,0.39c0.061-0.063,0.122-0.122,0.182-0.187c0.002-0.002,0.004-0.005,0.006-0.007C131.444,49.536,131.501,49.468,131.559,49.403" />
		<path clip-path="url(#SVGID_2_)" fill="#00A651" d="M129.118,51.422c-0.141,0.082-0.282,0.161-0.425,0.234c0.113-0.058,0.225-0.119,0.336-0.182c0.007-0.004,0.014-0.008,0.021-0.013C129.071,51.45,129.094,51.436,129.118,51.422" />
		<path clip-path="url(#SVGID_2_)" fill="#00A651" d="M128.764,46.138c-0.002,0.003-0.003,0.006-0.005,0.009c-0.001,0.002-0.002,0.004-0.003,0.008c-0.007,0.013-0.014,0.024-0.021,0.037c-0.033,0.064-0.066,0.126-0.1,0.188c-0.005,0.01-0.01,0.019-0.015,0.028c-0.01,0.017-0.019,0.034-0.028,0.052c-0.016,0.028-0.033,0.055-0.049,0.083c-0.031,0.054-0.062,0.107-0.094,0.161c-0.007,0.011-0.014,0.022-0.021,0.035c-0.005,0.009-0.01,0.017-0.015,0.024c-0.034,0.054-0.069,0.105-0.102,0.158c-0.014,0.02-0.026,0.041-0.04,0.061c-0.007,0.011-0.012,0.021-0.019,0.03c-0.012,0.018-0.023,0.034-0.035,0.051c-0.024,0.035-0.05,0.069-0.074,0.104c-0.02,0.026-0.038,0.054-0.058,0.081c-0.008,0.01-0.015,0.021-0.023,0.032c-0.013,0.018-0.026,0.035-0.04,0.054c-0.004,0.005-0.008,0.01-0.013,0.016c-0.036,0.047-0.073,0.093-0.11,0.139c-0.003,0.003-0.005,0.006-0.008,0.01c-0.013,0.016-0.025,0.033-0.038,0.049c-0.012,0.013-0.023,0.027-0.034,0.04c-0.003,0.004-0.007,0.008-0.01,0.012c-0.019,0.022-0.039,0.043-0.058,0.065c-0.021,0.022-0.042,0.047-0.063,0.069c-0.035,0.039-0.07,0.078-0.106,0.116c-0.035,0.036-0.071,0.071-0.108,0.106c-0.029,0.028-0.057,0.059-0.088,0.087c-0.025,0.023-0.052,0.046-0.078,0.069c-0.019,0.017-0.038,0.032-0.057,0.05c-0.031,0.026-0.061,0.054-0.093,0.08c-0.033,0.026-0.067,0.053-0.101,0.08c-0.014,0.01-0.027,0.02-0.041,0.03c-0.032,0.024-0.065,0.048-0.097,0.072c-0.039,0.027-0.076,0.054-0.115,0.079c-0.012,0.008-0.024,0.015-0.036,0.022c-0.035,0.022-0.069,0.045-0.105,0.065c-0.04,0.025-0.08,0.05-0.121,0.073c-0.012,0.007-0.025,0.013-0.037,0.02c-0.042,0.022-0.084,0.044-0.127,0.065c-0.068,0.034-0.136,0.065-0.206,0.097c-0.056,0.023-0.111,0.047-0.167,0.069c-0.047,0.017-0.095,0.032-0.143,0.048c-0.052,0.018-0.104,0.034-0.156,0.05c-0.05,0.015-0.1,0.026-0.15,0.038c-0.055,0.014-0.111,0.026-0.167,0.037c-0.029,0.006-0.057,0.014-0.087,0.019c1.634-0.283,2.718-1.514,3.462-2.969c0.476,0.223,0.929,0.485,1.368,0.768C129.693,46.625,129.241,46.361,128.764,46.138" />
		<path clip-path="url(#SVGID_2_)" fill="#00A651" d="M103.429,39.062c0.019-0.064,0.041-0.129,0.061-0.193c-0.053,0.168-0.104,0.334-0.151,0.499c0.004-0.015,0.009-0.031,0.013-0.046C103.377,39.235,103.401,39.148,103.429,39.062" />
		<path clip-path="url(#SVGID_2_)" fill="#00A651" d="M103.615,38.49c0.002-0.005,0.003-0.01,0.005-0.015c-0.027,0.077-0.053,0.154-0.079,0.232c0.001-0.004,0.002-0.007,0.004-0.01C103.566,38.628,103.591,38.559,103.615,38.49" />
		<path clip-path="url(#SVGID_2_)" fill="#00A651" d="M103.311,39.467c0.003-0.013,0.007-0.024,0.01-0.037c-0.217,0.77-0.371,1.482-0.484,2.02c0.095-0.448,0.217-1.015,0.38-1.635C103.247,39.702,103.277,39.585,103.311,39.467" />
		<path clip-path="url(#SVGID_2_)" fill="#00A651" d="M104.232,36.996c-0.008,0.017-0.016,0.034-0.024,0.051c0.005-0.01,0.01-0.021,0.015-0.032L104.232,36.996z" />
		<path clip-path="url(#SVGID_2_)" fill="#00A651" d="M104.018,37.457c-0.022,0.049-0.043,0.098-0.064,0.147c0.018-0.044,0.038-0.088,0.058-0.132C104.013,37.467,104.016,37.462,104.018,37.457" />
		<path clip-path="url(#SVGID_2_)" fill="#00A651" d="M103.782,38.028c-0.024,0.062-0.046,0.124-0.069,0.186c0.022-0.058,0.042-0.116,0.064-0.173C103.779,38.036,103.78,38.032,103.782,38.028" />
		<path clip-path="url(#SVGID_2_)" fill="#00A651" d="M104.531,36.449c-0.019,0.033-0.039,0.066-0.057,0.1c0.014-0.026,0.029-0.052,0.044-0.078C104.522,36.464,104.527,36.457,104.531,36.449" />
		<path clip-path="url(#SVGID_2_)" fill="#00A651" d="M102.411,43.779c0.004-0.028,0.007-0.057,0.011-0.086C102.417,43.722,102.415,43.75,102.411,43.779" />
		<path clip-path="url(#SVGID_2_)" fill="#00A651" d="M111.029,50.497c0.432-1.266,0.677-2.669,0.677-4.149c0-0.235-0.008-0.469-0.02-0.7h-2.1c-0.654,1.463-1.614,2.783-3.071,3.295c-0.001,0-0.002,0.001-0.003,0.001c-0.099,0.035-0.2,0.064-0.302,0.092c-0.008,0.002-0.015,0.003-0.021,0.005c-0.035,0.009-0.07,0.015-0.105,0.023c-0.292,0.065-0.6,0.104-0.929,0.104c-0.738,0-1.3-0.185-1.721-0.499c-1.198-0.893-1.268-2.842-1.055-4.64c-0.002,0.013-0.004,0.025-0.005,0.04c-1.392,1.287-3.05,2.256-4.906,2.761c0.212,2.154,1.009,3.62,2.186,4.559c0.013,0.011,0.025,0.021,0.038,0.031c0.07,0.054,0.141,0.106,0.214,0.157c0.033,0.022,0.065,0.047,0.099,0.07c0.059,0.039,0.119,0.076,0.18,0.113c0.05,0.031,0.099,0.063,0.15,0.092c0.05,0.027,0.099,0.055,0.15,0.081c0.066,0.035,0.133,0.07,0.2,0.104c0.039,0.019,0.078,0.037,0.118,0.055c0.083,0.038,0.166,0.075,0.252,0.11c0.027,0.011,0.054,0.021,0.082,0.033c0.102,0.04,0.204,0.077,0.309,0.111c0.013,0.006,0.026,0.01,0.04,0.015c0.88,0.289,1.861,0.418,2.903,0.418C106.747,52.778,109.061,52.135,111.029,50.497" />
		<path clip-path="url(#SVGID_2_)" fill="#00AEEF" d="M97.952,32.43l0.359-1.689L97.952,32.43z" />
		<path clip-path="url(#SVGID_2_)" fill="#00AEEF" d="M90.148,34.382l7.997-3.641h-0.001l-9.428,4.292l-0.702,3.302h3.749l-1.746,8.219c1.534,0.485,3.141,0.735,4.791,0.671l1.789-8.42C93.759,38.555,91.349,36.82,90.148,34.382" />
		<path clip-path="url(#SVGID_2_)" fill="#00AEEF" d="M101.484,33.632c-0.12,0.134-0.238,0.271-0.354,0.414c-0.028,0.034-0.055,0.066-0.082,0.101c-0.061,0.076-0.121,0.155-0.18,0.235c-0.035,0.046-0.07,0.091-0.105,0.139c-0.031,0.042-0.061,0.086-0.092,0.129C100.932,34.285,101.203,33.946,101.484,33.632" />
		<path clip-path="url(#SVGID_2_)" fill="#00AEEF" d="M99.235,37.207c-0.007,0.016-0.014,0.032-0.021,0.049c-0.05,0.114-0.099,0.228-0.147,0.345c-0.055,0.131-0.109,0.264-0.161,0.4c-0.027,0.069-0.052,0.141-0.078,0.211c-0.043,0.117-0.087,0.233-0.129,0.353c-0.016,0.046-0.031,0.093-0.047,0.139C98.833,38.176,99.027,37.677,99.235,37.207" />
		<path clip-path="url(#SVGID_2_)" fill="#00AEEF" d="M100.666,34.658c-0.023,0.032-0.046,0.065-0.069,0.097c-0.037,0.054-0.074,0.106-0.11,0.16c-0.053,0.079-0.106,0.159-0.158,0.24c-0.037,0.058-0.074,0.116-0.111,0.176c-0.05,0.08-0.1,0.162-0.149,0.245c-0.037,0.063-0.074,0.127-0.11,0.191c-0.013,0.022-0.025,0.044-0.038,0.066C100.158,35.414,100.406,35.023,100.666,34.658" />
		<path clip-path="url(#SVGID_2_)" fill="#00AEEF" d="M99.914,35.846c-0.032,0.058-0.065,0.115-0.097,0.174c-0.038,0.068-0.074,0.138-0.111,0.208c-0.044,0.084-0.089,0.169-0.132,0.257c-0.038,0.075-0.075,0.153-0.112,0.23c-0.041,0.086-0.083,0.17-0.123,0.257c-0.032,0.069-0.062,0.141-0.093,0.211C99.456,36.709,99.679,36.264,99.914,35.846" />
		<path clip-path="url(#SVGID_2_)" fill="#00AEEF" d="M102.374,44.068c0.002-0.014,0.003-0.026,0.005-0.04c0.01-0.083,0.02-0.166,0.032-0.248c0.003-0.029,0.007-0.059,0.011-0.086c0.116-0.843,0.286-1.633,0.414-2.245c0.114-0.537,0.267-1.25,0.485-2.019c0.006-0.021,0.012-0.042,0.018-0.063c0.047-0.165,0.097-0.331,0.151-0.5c0.017-0.054,0.033-0.107,0.051-0.161c0.025-0.077,0.052-0.154,0.079-0.231c0.017-0.051,0.036-0.101,0.054-0.151c0.013-0.037,0.026-0.074,0.039-0.111c0.023-0.062,0.045-0.124,0.069-0.186c0.017-0.044,0.036-0.087,0.053-0.131c0.038-0.098,0.077-0.195,0.118-0.292c0.021-0.049,0.043-0.098,0.065-0.147c0.008-0.021,0.018-0.04,0.027-0.06c0.053-0.117,0.106-0.234,0.163-0.35c0.008-0.017,0.016-0.034,0.024-0.051c0.018-0.036,0.038-0.069,0.056-0.105c0.06-0.115,0.121-0.231,0.185-0.343c0.019-0.033,0.038-0.067,0.058-0.1c0.011-0.019,0.024-0.037,0.035-0.056c0.074-0.123,0.149-0.246,0.229-0.364c0.026-0.039,0.056-0.075,0.083-0.114c0.082-0.115,0.164-0.229,0.253-0.337c0.03-0.038,0.063-0.072,0.094-0.109c0.089-0.104,0.179-0.207,0.275-0.304c0.035-0.035,0.073-0.067,0.11-0.101c0.096-0.092,0.193-0.181,0.296-0.264c0.041-0.032,0.084-0.061,0.126-0.092c0.103-0.077,0.208-0.152,0.318-0.219c0.047-0.028,0.096-0.052,0.144-0.079c0.111-0.061,0.223-0.12,0.341-0.171c0.016-0.007,0.031-0.017,0.047-0.024c0.01-0.204,0.016-0.407,0.016-0.613c0-1.031-0.134-2.035-0.382-2.993c0,0,0-0.001-0.001-0.001c-0.026,0.006-0.051,0.014-0.078,0.02c-0.063,0.016-0.126,0.032-0.189,0.049c-0.059,0.016-0.118,0.033-0.178,0.05c-0.066,0.019-0.133,0.039-0.199,0.059c-0.054,0.017-0.109,0.035-0.162,0.053c-0.071,0.023-0.14,0.046-0.209,0.07c-0.049,0.018-0.097,0.036-0.145,0.055c-0.074,0.027-0.149,0.054-0.222,0.084c-0.037,0.015-0.073,0.031-0.109,0.046c-0.291,0.121-0.578,0.257-0.861,0.409c-0.02,0.011-0.042,0.022-0.063,0.033c-0.08,0.044-0.158,0.09-0.237,0.136c-0.036,0.021-0.073,0.042-0.108,0.064c-0.075,0.045-0.149,0.092-0.223,0.139c-0.039,0.026-0.078,0.05-0.117,0.076c-0.072,0.048-0.143,0.097-0.214,0.147c-0.04,0.028-0.08,0.057-0.12,0.085c-0.07,0.051-0.14,0.104-0.209,0.157c-0.039,0.03-0.078,0.06-0.117,0.092c-0.07,0.055-0.139,0.111-0.207,0.168c-0.038,0.031-0.075,0.064-0.112,0.096c-0.069,0.06-0.139,0.119-0.207,0.182c-0.033,0.03-0.066,0.062-0.099,0.093c-0.072,0.067-0.143,0.134-0.214,0.204c-0.019,0.019-0.038,0.04-0.058,0.059c-0.125,0.126-0.248,0.258-0.37,0.394c1.131-1.26,2.42-2.11,3.791-2.634c-0.064,3.888-2.906,7.1-6.633,7.731c-0.008,0.022-0.015,0.044-0.022,0.066c-0.041,0.121-0.081,0.242-0.121,0.366c-0.008,0.026-0.016,0.053-0.024,0.079c-0.216,0.691-0.41,1.427-0.577,2.214c-0.455,2.142-0.581,3.917-0.435,5.38l0.001-0.001C99.324,46.324,100.982,45.354,102.374,44.068" />
		<path clip-path="url(#SVGID_2_)" fill="#0072BC" d="M97.952,32.43l0.359-1.689h-0.165h-0.002l-7.996,3.641c1.201,2.438,3.61,4.173,6.449,4.424L97.952,32.43z" />
		<path clip-path="url(#SVGID_2_)" fill="#0072BC" d="M98.653,38.704c-0.002,0.007-0.005,0.014-0.008,0.021h0.001c3.727-0.632,6.57-3.844,6.633-7.731c-1.371,0.523-2.66,1.374-3.791,2.634c-0.001,0.001-0.003,0.003-0.004,0.004c-0.281,0.313-0.552,0.653-0.813,1.018c-0.002,0.003-0.003,0.005-0.005,0.008c-0.26,0.365-0.508,0.756-0.745,1.175c-0.002,0.004-0.004,0.009-0.007,0.013c-0.235,0.417-0.458,0.863-0.668,1.337l-0.01,0.024C99.028,37.677,98.833,38.176,98.653,38.704" />
		<path clip-path="url(#SVGID_2_)" fill="#007F49" d="M130.132,46.907c-0.439-0.28-0.892-0.544-1.368-0.767c-0.744,1.455-1.828,2.685-3.462,2.969c-0.021,0.004-0.043,0.005-0.063,0.009c-0.064,0.01-0.129,0.018-0.195,0.025c-0.044,0.005-0.089,0.01-0.135,0.014c-0.029,0.002-0.061,0.002-0.091,0.004c-0.075,0.004-0.149,0.01-0.227,0.011c-0.008,0-0.015,0-0.024,0h-0.001c-0.042,0-0.077-0.007-0.118-0.008c-0.029-0.001-0.056-0.005-0.084-0.006c-0.073-0.004-0.148-0.006-0.217-0.015c-0.019-0.002-0.041-0.001-0.059-0.003c-0.003-0.001-0.006-0.001-0.008-0.001c-0.006-0.001-0.011-0.002-0.016-0.003c-0.009-0.001-0.018-0.004-0.027-0.005c-0.011-0.002-0.021-0.005-0.031-0.008c-0.127-0.02-0.251-0.044-0.367-0.075l0.001,0.001v0.001c0.954,1.322,2.171,2.425,3.587,3.218c0.218-0.07,0.434-0.149,0.648-0.235c0.003-0.002,0.005-0.002,0.007-0.003c0.004-0.002,0.009-0.003,0.013-0.005c0.009-0.003,0.019-0.007,0.029-0.011c0.032-0.013,0.063-0.029,0.094-0.043c0.16-0.066,0.318-0.138,0.475-0.214c0.015-0.009,0.032-0.015,0.047-0.021c0.004-0.002,0.008-0.004,0.013-0.006c0.046-0.023,0.092-0.049,0.139-0.073c0.143-0.073,0.284-0.152,0.425-0.233c0.023-0.015,0.046-0.025,0.069-0.038c0.004-0.003,0.009-0.005,0.012-0.007c0.037-0.022,0.072-0.044,0.109-0.066c0.184-0.114,0.367-0.234,0.547-0.362c0.013-0.009,0.026-0.017,0.039-0.025c0.19-0.138,0.376-0.284,0.559-0.438c0.061-0.051,0.12-0.104,0.18-0.158c0.126-0.11,0.25-0.225,0.373-0.344c0.008-0.007,0.016-0.014,0.023-0.021c0.003-0.002,0.006-0.005,0.008-0.008c0.054-0.054,0.108-0.108,0.161-0.162c0.123-0.126,0.243-0.257,0.362-0.391c0.013-0.015,0.028-0.029,0.041-0.045c0.002-0.002,0.004-0.004,0.006-0.006c0.039-0.045,0.078-0.089,0.117-0.135c0.17-0.2,0.336-0.406,0.498-0.626c-0.001-0.001-0.002-0.002-0.003-0.003C131.594,47.948,130.889,47.391,130.132,46.907" />
		<path clip-path="url(#SVGID_2_)" fill="#ED1C24" d="M111.29,36.754c0.005,0.045,0.01,0.089,0.015,0.135c0.001,0.014,0.004,0.028,0.005,0.042c-0.002-0.038-0.005-0.074-0.009-0.108c1.391-0.898,2.979-1.515,4.686-1.769c-0.002-0.008-0.004-0.015-0.006-0.022c-0.315-1.332-0.908-2.334-1.701-3.071C113.676,33.799,112.639,35.436,111.29,36.754" />
	</g>
	<g>
		<defs>
			<path id="SVGID_3_" d="M100.454,30.982l0.002,0.001c8.443-7.87,17.44-8.263,17.44-8.263c-2.102-0.669-3.967-0.955-5.619-0.955	C102.972,21.766,100.493,30.838,100.454,30.982 M127.399,23.952c-9.586-1.567-14.866,0.291-21.271,3.593	c0,0,4.911-1.733,11.263-0.204c7.02,1.697,11.595,0.914,14.869-0.35c3.276-1.262,7.625-4.63,9.417-7.348	C141.572,19.749,135.854,25.333,127.399,23.952" />
		</defs>
		<clipPath id="SVGID_4_">
			<use xlink:href="#SVGID_3_"  overflow="visible" />
		</clipPath>
		<linearGradient id="SVGID_5_" gradientUnits="userSpaceOnUse" x1="54.0024" y1="63.9995" x2="55.0024" y2="63.9995" gradientTransform="matrix(-24.4361 -13.601 -13.601 24.4361 2330.8442 -793.1211)">
			<stop  offset="0" style="stop-color:#D7DF23" />
			<stop  offset="0.0041" style="stop-color:#D7DF23" />
			<stop  offset="0.5879" style="stop-color:#8DC63F" />
			<stop  offset="0.6325" style="stop-color:#81C44E" />
			<stop  offset="0.7238" style="stop-color:#5DBE77" />
			<stop  offset="0.8541" style="stop-color:#00B5AE" />
			<stop  offset="1" style="stop-color:#00AEEF" />
		</linearGradient>
		<polygon clip-path="url(#SVGID_4_)" fill="url(#SVGID_5_)" points="131.927,48.501 95.634,28.301 110.204,2.125 146.497,22.325" />
	</g>
	<g>
		<defs>
			<rect id="SVGID_6_" x="54.002" y="19.643" width="181.529" height="44.357" />
		</defs>
		<clipPath id="SVGID_7_">
			<use xlink:href="#SVGID_6_"  overflow="visible" />
		</clipPath>
		<path clip-path="url(#SVGID_7_)" fill="#00A651" d="M54.003,63.594l0.689-3.239h1.053l-0.689,3.239H54.003z M57.876,63.594l0.677-3.186c0.249-1.17,0.085-1.586-1.199-1.586h-2.337l0.154-0.724h2.381c1.789,0,2.458,0.361,2.051,2.277l-0.685,3.218H57.876z"/>
		<path clip-path="url(#SVGID_7_)" fill="#00A651" d="M64.313,63.594l0.673-3.163c0.253-1.192,0.133-1.608-0.986-1.608h-1.624l-1.015,4.771h-1.042l1.168-5.495l2.702-0.012c1.736-0.01,2.225,0.526,1.869,2.201l-0.703,3.306H64.313z" />
		<path clip-path="url(#SVGID_7_)" fill="#00A651" d="M68.579,63.594h-1.481l0.154-0.723h1.295c1.064,0,2.161-0.361,2.513-2.014c0.293-1.379,0.135-2.189-0.984-2.189c-1.338,0-2.236,1.642-1.901,2.65h-0.977c-0.504-0.987,0.587-3.384,3.034-3.384c1.734,0,2.305,1.028,1.905,2.912C71.695,62.926,70.269,63.594,68.579,63.594" />
		<path clip-path="url(#SVGID_7_)" fill="#00A651" d="M76.071,63.595h-2.985l0.598-5.496h1.032l-0.499,4.772h1.547c1.382,0,2.107-0.208,2.368-1.435l0.709-3.338h1.043l-0.693,3.262C78.776,63.31,77.542,63.595,76.071,63.595 M75.599,61.788l0.785-3.688h1.031l-0.784,3.688H75.599z" />
		<path clip-path="url(#SVGID_7_)" fill="#00A651" d="M82.487,63.594l0.161-0.756c0.794,0.24,1.771,0.188,2.008-0.93l0.37-1.74c0.091-0.428,0.352-1.5-0.877-1.5c-1.163,0-2.085,1.237-2.273,2.123l-0.596,2.803h-1.042l0.914-4.302c0.061-0.285,0.173-0.657,0.122-1.193h0.977c0.064,0.373,0.003,0.656-0.099,1.14c0.021,0.054,0.051,0.065,0.107,0.009c0,0,0.701-1.334,2.236-1.334c2.118,0,1.734,1.554,1.589,2.233l-0.391,1.839C85.344,63.627,83.926,64,82.487,63.594" />
		<path clip-path="url(#SVGID_7_)" fill="#00A651" d="M89.364,63.594h-1.065l1.296-3.36c0.291-0.745,0.663-1.411-0.478-1.411h-1.196c-0.538,0-1.035-0.242-0.87-1.019c0.002-0.013,0.219-1.03,0.219-1.03c0.137-0.646-0.022-1.083-0.022-1.083h1.119c0,0,0.096,0.372-0.036,0.996c-0.291,1.369-0.245,1.412,0.402,1.412h1.273c1.7,0,1.005,1.259,0.645,2.179L89.364,63.594z" />
		<path clip-path="url(#SVGID_7_)" fill="#00A651" d="M94.145,63.594l0.688-3.239h1.054l-0.689,3.239H94.145z M98.018,63.594l0.677-3.186c0.249-1.17,0.085-1.586-1.199-1.586h-2.337l0.154-0.724h2.381c1.789,0,2.458,0.361,2.051,2.277l-0.685,3.218H98.018z"/>
		<path clip-path="url(#SVGID_7_)" fill="#00A651" d="M99.968,63.594l0.153-0.723h1.504c1.295,0,1.921-0.931,2.172-2.112c0.284-1.336-0.28-1.937-1.388-1.937h-1.36l0.153-0.724h1.371c1.657,0,2.771,0.591,2.336,2.639c-0.402,1.893-1.553,1.938-1.593,2.124c-0.023,0.109,0.448,0.01,0.745,0.01h0.955l-0.154,0.723H99.968z" />
		<path clip-path="url(#SVGID_7_)" fill="#00A651" d="M105.913,63.594l0.94-4.423c0.06-0.283,0.066-0.93-0.002-1.072h1.064c0,0,0.139,0.328-0.024,1.095l-0.936,4.4H105.913z" />
		<path clip-path="url(#SVGID_7_)" fill="#00A651" d="M111.034,63.759c-2.184,0-2.268-1.72-2.086-2.573l0.656-3.087h1.042l-0.666,3.131c-0.16,0.756,0.118,1.774,1.236,1.774c1.284,0,1.768-1.194,1.936-1.982c0.316-1.489,0.311-2.288-0.655-2.288c-0.724,0-0.843,0.252-0.898,0.252l0.155-0.733c0.017-0.077,0.419-0.317,1.001-0.317c1.613,0,1.968,0.755,1.475,3.076C113.864,62.729,112.833,63.759,111.034,63.759" />
		<path clip-path="url(#SVGID_7_)" fill="#00A651" d="M118.468,61.285l0.449-2.112c0.06-0.285,0.067-0.931-0.002-1.073h1.064c0,0,0.139,0.329-0.024,1.095l-0.445,2.091H118.468z" />
		<path clip-path="url(#SVGID_7_)" fill="#00A651" d="M119.995,63.594l0.156-0.732h1.668c1.832,0,2.669-4.039,0.836-4.039h-1.646l0.154-0.724h1.646c3.248,0,2.179,5.495-1.146,5.495H119.995z" />
		<path clip-path="url(#SVGID_7_)" fill="#00A651" d="M125.15,63.594l0.689-3.239h1.053l-0.689,3.239H125.15z M129.023,63.594l0.677-3.186c0.249-1.17,0.085-1.586-1.199-1.586h-2.337l0.154-0.724h2.381c1.789,0,2.458,0.361,2.051,2.277l-0.685,3.218H129.023z" />
		<path clip-path="url(#SVGID_7_)" fill="#00A651" d="M110.814,44.206h-0.904l1.101-2.853c0.246-0.632,0.563-1.198-0.407-1.198h-1.016c-0.456,0-0.879-0.205-0.739-0.865c0.002-0.009,0.186-0.874,0.186-0.874c0.116-0.548-0.019-0.919-0.019-0.919h0.951c0,0,0.082,0.316-0.031,0.846c-0.247,1.161-0.208,1.198,0.342,1.198h1.081c1.444,0,0.853,1.069,0.548,1.849L110.814,44.206z" />
		<path clip-path="url(#SVGID_7_)" fill="#00A651" d="M114.503,44.206h-2.442l0.131-0.612h1.472l-0.611-4.052h0.941l0.574,4.052c0.466,0,1.107-0.251,1.346-1.375l0.568-2.677h0.886c0,0-0.342,1.608-0.573,2.695C116.5,43.63,115.668,44.206,114.503,44.206" />
		<path clip-path="url(#SVGID_7_)" fill="#00A651" d="M119.571,44.206l0.136-0.641c0.674,0.205,1.504,0.157,1.706-0.79l0.314-1.477c0.077-0.363,0.299-1.273-0.745-1.273c-0.988,0-1.771,1.05-1.93,1.803l-0.506,2.377h-0.886l0.777-3.652c0.051-0.241,0.146-0.558,0.104-1.013h0.829c0.053,0.316,0.002,0.558-0.085,0.966c0.018,0.047,0.045,0.056,0.092,0.01c0,0,0.595-1.133,1.9-1.133c1.798,0,1.471,1.318,1.348,1.895l-0.332,1.562C121.997,44.235,120.793,44.55,119.571,44.206" />
	</g>
</svg>
